<svg xmlns="http://www.w3.org/2000/svg" width="19" height="24" viewBox="0 0 19 24">
    <g fill="none" fill-rule="evenodd">
        <g fill="#FFA814">
            <g>
                <path d="M6.844 18.039c1.606 0 2.907 1.334 2.907 2.98S8.45 24 6.844 24s-2.908-1.335-2.908-2.98c0-1.647 1.302-2.981 2.908-2.981zm7.928.122v1.112h-2.748l.015 1.189h2.332v1.066h-2.347v2.3h-1.421v-5.667h4.17zm4.875 0v1.112H16.9l.015 1.189h2.332v1.066h-2.347v2.3h-1.42v-5.667h4.168zm-12.758.942c-.857 0-1.552.83-1.552 1.853 0 1.024.695 1.853 1.552 1.853.858 0 1.552-.83 1.552-1.853 0-1.023-.694-1.853-1.552-1.853zm9.165-6.41v1.009h4.62v1.594h-4.629v.966l-1.814-1.746 1.823-1.823zM3.019 5.228c.571 0 2.492.05 3.228.693.564.494 1.035 1.458 1.235 1.908l1.829.541c.682.304 1.226.92.941 1.623-.223.55-.939 1.556-1.08 1.752l-.166.23h-.974c-.272.337-.799.845-1.516.877l-.073.001-.154-.007c-.51-.049-.992-.34-1.435-.87H3.068v-1.11h2.34l.166.228c.3.413.616.65.866.65.39-.016.74-.458.834-.611l.162-.266.998-.001c.3-.431.639-.956.768-1.242-.045-.052-.161-.153-.309-.225L6.66 8.744l-.1-.25c-.132-.33-.608-1.356-1.043-1.737-.286-.25-1.522-.419-2.497-.42H2.88v-1.11zm17.789.09v1.11H18.29c-.159.124-.66.569-1.93 2.051l-.096.112-.138.05c-2.281.82-3.22 1.058-3.386 1.098-.044.019-.143.084-.164.141-.016.046 0 .155.099.32.428.724.585.948.586.95.031.048.284.422.665.46.022.003.045.004.067.004.301 0 .66-.207 1.04-.6l.163-.168h5.54v1.11h-5.077c-.547.51-1.106.768-1.663.768-.065 0-.13-.003-.196-.01-.935-.103-1.444-.918-1.466-.953-.006-.006-.191-.279-.615-.995-.335-.567-.283-1.009-.18-1.28.22-.583.814-.79.881-.81l.043-.013c.014-.003.86-.2 3.15-1.018 1.916-2.227 2.148-2.327 2.65-2.327h2.545zM10.375.011c.068-.026.144-.005.19.05l1.402 1.684 2.071-.73c.069-.023.145-.001.19.055.045.057.05.137.01.198l-1.173 1.853 1.33 1.738c.045.058.048.137.008.198-.02.03-.05.053-.083.065-.032.012-.067.015-.102.006l-2.127-.538-1.248 1.804c-.042.06-.116.086-.186.067-.07-.02-.12-.081-.125-.153l-.14-2.185-2.102-.624c-.07-.021-.12-.084-.122-.156-.004-.073.04-.14.107-.166l2.04-.813-.051-2.19c-.002-.072.043-.138.11-.163z" transform="translate(-543.000000, -526.000000) translate(541.000000, 526.000000)"/>
            </g>
        </g>
    </g>
</svg>
