<svg xmlns="http://www.w3.org/2000/svg" width="23" height="18" viewBox="0 0 23 18">
    <g fill="none" fill-rule="evenodd">
        <g fill="#D4002A">
            <g>
                <path d="M21.536 17.28c.842 0 1.504.632 1.504 1.437 0 .795-.635 1.442-1.415 1.443-.805 0-1.468-.654-1.465-1.445.003-.74.67-1.434 1.376-1.435zM5.216 5.01c3.264-1.71 6.495-1.552 9.544.518 2.26 1.533 3.426 3.754 3.48 6.682-.081 2.228-.986 4.18-2.739 5.74-1.652 1.47-3.59 2.183-5.755 2.21-2.162.025-4.146-.612-5.834-2.018C2.26 16.766 1.25 15.01 1.006 12.82c-.363-3.256 1.438-6.358 4.21-7.81zm6.581 9.038c-.377-.195-.735-.196-1.117-.009-.678.333-1.385.354-2.06.03-.5-.24-.938-.191-1.407.055-.927.486-1.866.947-2.797 1.425-.518.266-.56.547-.148.968 1.493 1.527 3.326 2.215 5.534 2.266 1.909-.097 3.695-.751 5.118-2.276.392-.42.364-.683-.14-.941-.992-.51-1.991-1.006-2.983-1.518zm11.22-8.61c.043.165.006.321.006.481-.004 2.915-.037 5.83.017 8.744.015.848-.52 1.46-1.136 1.616-.852.216-1.732-.449-1.738-1.347-.011-1.539-.003-3.077-.003-4.615h-.002c0-1.504-.003-3.008.001-4.511.003-.827.478-1.387 1.237-1.475.773-.09 1.418.356 1.617 1.108zm-11.067.27c-1.773-.576-3.568-.544-5.313.223-2.422 1.065-4.185 3.43-4.11 6.042.004.36-.007.72.06 1.08.099.518.367.665.828.432 1.015-.513 2.026-1.035 3.048-1.534.45-.22.825-.487.985-.997.052-.165.165-.302.28-.436 1.076-1.259 3.53-1.007 4.152.715.077.214.21.379.42.484 1.17.59 2.335 1.19 3.505 1.778.443.222.702.087.797-.4.215-1.105.122-2.2-.283-3.23-.81-2.067-2.293-3.483-4.37-4.157z" transform="translate(-1628.000000, -318.000000) translate(1627.000000, 315.000000)"/>
            </g>
        </g>
    </g>
</svg>
