<svg xmlns="http://www.w3.org/2000/svg" width="22" height="16" viewBox="0 0 22 16">
    <g fill="none" fill-rule="evenodd">
        <g fill="#FFA814">
            <g>
                <path d="M4.156 4.8c.471 0 .942.002 1.413.006l2.826.027 1.752.018c.684.007.897.213.908.9.021 1.345.04 2.69.051 4.036.002.233.045.403.305.47 1.059.273 1.487 1.042 1.512 2.045l.028.961c.015.642.015 1.284-.07 1.924-.022.172-.02.348-.01.522.04.736.538 1.161 1.311 1.125.725-.033 1.176-.489 1.113-1.231-.074-.888-.187-1.775-.412-2.643-.03-.114-.061-.227-.094-.34l-.202-.675c-.132-.451-.25-.907-.284-1.382-.025-.338.016-.672.02-1.007.024-1.685-.853-2.865-2.18-3.779-.285-.195-.37-.394-.225-.722.134-.303.378-.218.6-.144 1.997.665 3.121 2.105 3.644 4.074.061.23.03.39-.263.391-.276.003-.346.177-.401.427-.171.776-.022 1.508.165 2.238l.127.487.062.244c.237.958.37 1.932.46 2.918.11 1.186-1.04 2.461-2.65 2.137-1.126-.227-1.787-1.127-1.75-2.463.024-.894.037-1.785-.014-2.677-.022-.373-.048-.746-.307-1.05-.09-.106-.191-.232-.348-.189-.184.05-.13.226-.132.356-.023 1.751-.043 3.503-.06 5.255-.002.22.017.44.028.66.015.299.076.528.467.548.283.015.2.294.212.477.028.441.022.443-.427.443H7.09c-1.425.009-2.85.01-4.275.007-.133 0-.32.049-.362-.126-.058-.232-.093-.483.02-.711.028-.054.082-.068.14-.07h.118c.447-.018.468-.037.47-.486.001-.754 0-1.509-.001-2.263l-.01-9.782c0-.7.244-.956.965-.956zm16.453 8.181c.054.04.025.103.01.154-.339 1.186-.668 2.376-1.375 3.437-.068.102-.145.2-.228.293-.338.377-.63.487-.975.371-.428-.143-.76-.574-.761-.985.001-.231.12-.418.263-.597.653-.818 1.476-1.482 2.296-2.147.197-.159.39-.322.585-.481.053-.043.113-.097.185-.045zm3.327-5.762c.16.102-.023.319-.064.48-.118.458-.249.914-.422 1.358-.261.727-.555 1.441-1.08 2.05-.394.458-.76.53-1.202.243-.505-.327-.67-.853-.397-1.286.462-.73 1.147-1.273 1.805-1.837l.312-.259.635-.507c.161-.06.265-.336.413-.242zm-3.331-.974c.013.02.038.04.035.054-.332 1.327-.699 2.645-1.582 3.78-.392.503-.802.6-1.21.345-.566-.355-.728-.889-.4-1.377.276-.411.639-.76 1.023-1.088.654-.557 1.318-1.105 1.978-1.656.043-.036.087-.078.156-.058zM4.56 5.826c-.268-.003-.378.092-.373.365.024 1.228-.036 2.457.041 3.686.02.303.135.407.425.406 1.563-.008 3.127-.01 4.691-.009.258 0 .373-.088.388-.362.071-1.228.036-2.457.05-3.686.004-.284-.104-.392-.39-.388-.806.01-1.61.004-2.416.004V5.83c-.805 0-1.61.006-2.416-.004z" transform="translate(-1219.000000, -449.000000) translate(1217.000000, 445.000000)"/>
            </g>
        </g>
    </g>
</svg>
