<svg xmlns="http://www.w3.org/2000/svg" width="24" height="16" viewBox="0 0 24 16">
    <g fill="none" fill-rule="evenodd">
        <g fill="#FFA814">
            <g>
                <path d="M11.72 17.878c.182 0 .33.149.33.333v.655c0 .185-.148.334-.33.334H7.252c-.182 0-.33-.15-.33-.334v-.655c0-.184.148-.333.33-.333h4.468zm7.752-4.089c1.291 0 2.342 1.065 2.342 2.374 0 1.31-1.05 2.374-2.342 2.374-.673 0-1.315-.296-1.76-.811l-.014-.015.662-.671.015.018c.27.34.67.533 1.097.533.777 0 1.41-.64 1.41-1.428 0-.787-.633-1.428-1.41-1.428-.165 0-.329.03-.488.09l-.019.007-.381-.864.02-.008c.28-.114.571-.17.868-.17zM7.813 15.094c.525 0 .95.432.95.963 0 .532-.425.963-.95.963-.524 0-.95-.431-.95-.963 0-.531.426-.963.95-.963zm3.121 0c.525 0 .95.432.95.963 0 .532-.425.963-.95.963-.524 0-.95-.431-.95-.963 0-.531.426-.963.95-.963zm1.471-.155l5.181.29c.11.007.194.102.188.214l-.048.87c-.005.11-.1.196-.21.19l-5.18-.291c-.11-.006-.194-.102-.188-.213l.047-.87c.007-.11.1-.196.21-.19zM.258 14.005l4.847.272c.11.006.194.101.188.213l-.048.87c-.006.11-.1.196-.21.19l-4.847-.272c-.11-.006-.194-.101-.188-.213l.048-.87c.006-.11.1-.196.21-.19zm21.435-4.293C22.965 9.712 24 10.76 24 12.05c0 1.29-1.035 2.338-2.307 2.338-.082 0-.163-.004-.243-.013l-.06-.006.034-.991.07.01c.076.012.138.017.199.017.737 0 1.337-.608 1.337-1.355s-.6-1.355-1.337-1.355c-.037 0-.072.003-.108.006l-.071.006.033-.989.091-.004.055-.002zm-13.88 2.663c.525 0 .95.432.95.963 0 .532-.425.963-.95.963-.524 0-.95-.431-.95-.963 0-.531.426-.963.95-.963zm3.121 0c.525 0 .95.432.95.963 0 .532-.425.963-.95.963-.524 0-.95-.431-.95-.963 0-.531.426-.963.95-.963zm-3.12-2.663c.524 0 .95.43.95.963 0 .531-.426.962-.95.962-.525 0-.95-.43-.95-.962s.425-.963.95-.963zm3.12 0c.525 0 .95.43.95.963 0 .531-.425.962-.95.962-.524 0-.95-.43-.95-.962s.426-.963.95-.963zm8.294-3.983c1.3 0 2.354 1.068 2.354 2.386s-1.054 2.386-2.354 2.386c-.377 0-.732-.092-1.048-.252l.5-.879c.168.075.353.118.548.118.748 0 1.354-.615 1.354-1.373s-.606-1.372-1.354-1.372c-.408 0-.773.183-1.021.473l-.708-.717c.43-.472 1.045-.77 1.73-.77zM5.37 8.675c.11-.006.204.079.21.19l.047.87c.007.111-.078.206-.187.212l-5.181.291c-.11.006-.204-.079-.21-.19L0 9.178c-.006-.111.078-.206.188-.213l5.181-.29zm12.148-.934c.11-.006.203.079.21.19l.047.87c.006.111-.078.206-.188.213l-4.847.272c-.11.006-.204-.08-.21-.19l-.047-.87c-.006-.112.078-.207.188-.213l4.847-.272zm-9.704-.767c.525 0 .95.431.95.963s-.425.963-.95.963c-.524 0-.95-.431-.95-.963s.426-.963.95-.963zm3.121 0c.525 0 .95.431.95.963s-.425.963-.95.963c-.524 0-.95-.431-.95-.963s.426-.963.95-.963zm.677-2.174c.182 0 .33.15.33.334v.655c0 .184-.148.333-.33.333H7.143c-.182 0-.33-.149-.33-.333v-.655c0-.185.148-.334.33-.334h4.468z" transform="translate(-111.000000, -571.000000) translate(110.999980, 567.000000)"/>
            </g>
        </g>
    </g>
</svg>
