<svg xmlns="http://www.w3.org/2000/svg" width="18" height="20" viewBox="0 0 18 20">
    <g fill="none" fill-rule="evenodd">
        <g fill="#D4002A">
            <g>
                <path d="M13.892 3.532c.363.858.174 1.75-.565 2.334-.363.287-.334.599-.232.954.1.351.36.556.7.654.196.055.323-.092.45-.21.824-.766 1.649-1.531 2.471-2.3.132-.123.269-.256.455-.162.233.118.436.292.544.535.05.113-.074.2-.154.274-.56.524-1.122 1.045-1.683 1.568-.235.219-.465.442-.7.66-.206.19-.11.36.08.435.471.183.6.567.716 1 .391 1.467.812 2.926 1.208 4.39.105.392-.018.787-.093 1.17-.066.333.016.513.338.662 1.025.472 2.026.99 2.939 1.662.352.26.364.347.04.647-.492.457-.566.462-1.1.072-.662-.485-1.374-.88-2.137-1.19-.254-.103-.38-.039-.456.234-.413 1.466-.953 2.88-1.727 4.2-.142.242-.326.364-.596.37-.434.008-.868.01-1.302.016-.281.003-.326-.107-.182-.339.438-.703.845-1.422 1.179-2.181.18-.41.318-.83.425-1.262.09-.36.01-.44-.365-.519-1.418-.294-2.834-.234-4.252-.006-.468.075-.532.163-.4.602.205.688.5 1.34.8 1.992.223.483.484.945.769 1.394.153.242.05.347-.187.366-.222.018-.446.004-.774.004-.872.228-1.143-.515-1.5-1.11l-.065-.104c-.647-1.004-1.067-2.11-1.375-3.262-.133-.494-.181-.5-.62-.227-.704.438-1.416.864-2.116 1.31-.226.143-.397.132-.597-.046-.611-.544-.625-.55-.034-1.103.821-.768 1.656-1.523 2.493-2.275.294-.264.484-.556.575-.957l.385-1.658.796-3.31c.066-.278.26-.415.488-.518.564-.255 1.134-.496 1.702-.742.425-.184.71-.489.812-.945.059-.266-.009-.467-.266-.624-.755-.458-1.112-1.363-.886-2.173.2-.715 1.093-1.385 1.882-1.412 1.027-.035 1.799.377 2.117 1.13zm.628 4.32c-.247-.234-.56-.228-.804.008-.479.46-.961.918-1.445 1.374-1.593 1.5-3.186 3-4.782 4.495-.199.186-.327.386-.279.633-.007.377.07.708.157 1.034.103.394.171.418.566.28 1.221-.43 2.487-.668 3.773-.663 1.543.007 3.06.262 4.526.767.219.075.433.134.523-.175.077-.266.086-.497-.233-.627-1.053-.429-2.147-.669-3.28-.71-1.505-.056-3.001.018-4.478.332-.28.06-.413-.047-.432-.325-.012-.175.075-.3.193-.411.29-.273.586-.54.876-.814 1.432-1.353 2.863-2.708 4.291-4.064.272-.258.535-.526.798-.793.1-.101.167-.21.03-.34z" transform="translate(-1220.000000, -527.000000) translate(1217.000000, 525.000000)"/>
            </g>
        </g>
    </g>
</svg>
