<svg xmlns="http://www.w3.org/2000/svg" width="22" height="14" viewBox="0 0 22 14">
    <g fill="none" fill-rule="evenodd">
        <g fill="#FFA814">
            <g>
                <path d="M17.658 15.532v2.27H10.05l-2.177-2.183H4.944c-.07-.072-.106-.194-.106-.363l.003-3.142V9.28h1.223l.609-.005.214-.57c.12-.318.393-.689.567-.689h2.003v.001h5.883c.11.14.31.47.489 1.157l.17.658h1.762v1.563h.874l.487.014H20V9.818h1.108l.46 1.228.002 4.414-.504 1.584h-1.131v-1.498h-.875l-.524-.014h-.878zm4.9-4.665l-.761-2.044h-2.79v1.588l-.254-.007V8.837h-1.987c-.43-1.583-1.063-1.802-1.09-1.81l-.017-.006H12.47V6.55H14.6V5.28H7.19v1.297h2.212v.444H7.454c-.88 0-1.359 1.004-1.468 1.264H4.672c-.635 0-.816.564-.824.863v2.085H3.07V8.032l-1.629.672v3.111l.546.446v2.75l1.022.413.054-.055c.044-.044.054-.055.018-2.942h.675v2.825c0 .932.852 1.334.889 1.351l.022.01h2.795l2.177 2.184h8.268c.546 0 .726-.487.744-.747v-1.52l.292.008v1.5h2.85l.768-2.424-.002-4.747z" transform="translate(-112.000000, -390.000000) translate(111.000000, 385.000000)"/>
            </g>
        </g>
    </g>
</svg>
