<svg xmlns="http://www.w3.org/2000/svg" width="17" height="24" viewBox="0 0 17 24">
    <g fill="none" fill-rule="evenodd">
        <g fill="#FFA814">
            <g>
                <path d="M6.24 17.76c1.59 0 2.88 1.397 2.88 3.12S7.83 24 6.24 24c-1.59 0-2.88-1.397-2.88-3.12s1.29-3.12 2.88-3.12zm8.16.48v1.13h-2.848v.061l.016 1.127v.02h2.416v1.083h-2.432V24H10.08v-5.76h4.32zm5.28 0v1.13h-2.848v.061l.016 1.127v.02h2.416v1.083h-2.432V24H15.36v-5.76h4.32zm-13.395.634c-.849 0-1.537.869-1.537 1.94s.688 1.94 1.537 1.94 1.537-.869 1.537-1.94-.688-1.94-1.537-1.94zm12.767-7.987c.442.3.666.713.623 1.244-.042.518-.385.842-.84.977-.765.226-1.55.387-2.328.564-.619.14-1.25.232-1.859.403-.72.203-1.008.74-.738 1.327.184.403.566.58.973.692.247.068.499.115.745.196-1.284.021-2.578.163-3.798-.429-.962-.466-1.05-1.695-.237-2.215.8-.511 1.683-.732 2.596-.9.58-.106 1.159-.227 1.733-.361.191-.045.383-.128.55-.233.482-.304.538-.845.126-1.236-.192-.181-.413-.337-.637-.48-.213-.135-.446-.238-.67-.356 1.318 0 2.623.035 3.76.807zM7.5 9.6c.731-.002 1.639.112 2.366.264.458.095.913.279 1.323.505.263.145.5.407.647.673.335.606.146 1.236-.502 1.507-.625.261-1.297.423-1.961.578-.732.17-1.479.277-2.216.425-.17.035-.34.107-.49.194-.746.428-.757 1.207.002 1.627.36.199.779.293 1.17.434-.685.037-1.379.057-2.063-.018-.56-.063-1.137-.212-1.647-.45-.967-.453-1.029-1.561-.153-2.176.645-.452 1.403-.634 2.164-.793.725-.152 1.452-.3 2.177-.454.107-.023.21-.068.31-.116.652-.317.725-.973.156-1.422-.182-.143-.367-.285-.564-.405-.186-.114-.39-.199-.587-.296-.125-.05-.108-.042-.132-.077zM15.209 0l1.069 1.942h1.47l.012 1.912h-.857l.003 2.527s.051.355-.38.428l-.001.454V7.952l-.001.125v.412l-1.411.003V6.674H9.798s.009.635.01 1.152l.001.29c0 .221-.004.374-.011.367l-1.447.003V6.81s-.365-.108-.363-.435l-.005-2.472H6.72V1.965h1.361L9.4 0h5.81zm-.567.743h-4.7c-.014 0-.858 1.26-.858 1.26v1.51h6.29v-1.44l-.732-1.33z" transform="translate(-1630.000000, -369.000000) translate(1627.000000, 368.999982)"/>
            </g>
        </g>
    </g>
</svg>
