<svg xmlns="http://www.w3.org/2000/svg" width="22" height="17" viewBox="0 0 22 17">
    <g fill="none" fill-rule="evenodd">
        <g fill="#D4002A">
            <g>
                <path d="M7.975 13.027c.524.156 1.056.276 1.584.415.259.069.42.193.542.438.384.776.775 1.548 1.176 2.315.085.162.257.357.127.503-.094.106-.291-.086-.45-.12-.031-.008-.058-.033-.088-.05-.75-.188-1.457-.498-2.193-.727-.181-.057-.356-.137-.54-.184-.359-.091-.659.01-.9.295l-3.232 3.819c-.117.139-.268.232-.419.328-.677.22-1.148.082-1.495-.439-.219-.33-.234-.761.023-1.054.63-.72 1.236-1.46 1.856-2.188l1.075-1.273c.18-.211.362-.422.546-.63.302-.34.582-.7.877-1.046.423-.495.932-.574 1.511-.402zm4.479.414c.821 2.09 1.643 4.18 2.458 6.272.157.402.14.41-.308.414h-.23c-.348.086-.544-.103-.685-.476-.483-1.278-.995-2.546-1.5-3.817-.315-.795-.63-1.591-.959-2.382-.091-.221-.058-.333.173-.437.75-.335.748-.345 1.05.426zm3.882-4.197c1.047.002 1.738.685 1.685 1.653-.018.32-.193.568-.346.822-.923 1.524-1.857 3.042-2.788 4.561-.049.08-.064.216-.2.185-.112-.024-.128-.142-.163-.235-.46-1.23-.915-2.46-1.384-3.685-.089-.231-.095-.41.076-.61.6-.704 1.17-1.434 1.783-2.127.43-.485.694-.566 1.337-.564zm-4.178-3.83c.717.606 1.341 1.588 1.278 2.737-.048 1.65-.92 2.783-2.448 3.444-1.884.815-3.897.375-5.294-1.097-1.192-1.255-1.172-3.336-.06-4.657 1.53-1.82 4.59-2.061 6.524-.428zm9.86 2.14l.06.396c.015.177-.066.3-.206.396-.847.584-1.693 1.17-2.542 1.75-.176.121-.322.1-.455-.09-.488-.698-.487-.688.249-1.138.812-.497 1.612-1.012 2.418-1.517.374-.234.411-.217.476.204zM16.803 5.28c.706.009 1.282.278 1.66.825.393.566.361 1.425-.275 2.02-.102.094-.22.174-.344.244-.712.37-1.424.353-2.134-.003-.637-.45-.974-1.01-.77-1.793.192-.744 1.041-1.303 1.863-1.293z" transform="translate(-1628.000000, -243.000000) translate(1627.000000, 239.000000)"/>
            </g>
        </g>
    </g>
</svg>
