<svg xmlns="http://www.w3.org/2000/svg" width="24" height="18" viewBox="0 0 24 18">
    <g fill="none" fill-rule="evenodd">
        <g fill="#FFA814">
            <g>
                <path d="M22.588 17.478c.78 0 1.412.632 1.412 1.411 0 .78-.632 1.412-1.412 1.412-.78 0-1.412-.632-1.412-1.412 0-.78.632-1.411 1.412-1.411zM10.838 6.654c1.368 0 2.6.292 3.763.892 1.697.875 2.871 2.114 3.59 3.787.994 2.313.816 4.56-.53 6.68-.286.45-.64.834-.984 1.204-.134.144-.267.287-.396.435-.106.12-.21.179-.321.179-.115 0-.229-.062-.358-.195-.372-.38-.77-.738-1.154-1.083-.158-.142-.315-.284-.471-.427l-.046-.042.027-.056c.212-.435.4-.62.63-.62.151 0 .314.085.513.268.064.06.13.117.195.175.142.125.288.253.422.399.074.08.141.121.2.121.063 0 .133-.046.213-.142.825-.99 1.285-1.99 1.448-3.147.024-.17.016-.275-.025-.322-.028-.032-.08-.048-.163-.048h-.634c-.184 0-.368.002-.552.01h-.03c-.336 0-.383-.268-.384-.531-.001-.209.034-.338.114-.419.062-.063.149-.093.266-.093h.044c.118.008.235.01.353.01l.503-.004c.084 0 .169 0 .253.004.121 0 .184-.021.22-.064.053-.063.063-.194.03-.388-.194-1.144-.675-2.128-1.514-3.098-.02-.025-.07-.039-.132-.039-.072 0-.152.02-.206.052-.128.075-.244.19-.366.314-.06.06-.12.12-.18.175-.265.238-.41.37-.57.37-.188 0-.334-.177-.654-.564l-.049-.059 1.164-1.153c-.746-.577-1.517-.958-2.419-1.197-.256-.068-.523-.112-.781-.154-.175-.029-.35-.058-.525-.094-.031-.006-.06-.01-.085-.01-.067 0-.096.023-.113.04-.05.05-.073.16-.07.325.005.245.004.49.003.752l-.001.45h-.083c-.081 0-.159.002-.234.004l-.205.003c-.132 0-.234-.007-.33-.022-.122-.02-.239-.239-.25-.371-.018-.215-.014-.434-.01-.647.003-.083.004-.166.005-.25 0-.119-.02-.2-.058-.239-.016-.016-.044-.037-.114-.037-.016 0-.034.002-.053.004-1.33.164-2.469.592-3.484 1.308-.082.059-.193.143-.196.203-.004.063.098.162.186.241.307.276.615.55.924.825.55.49 1.1.98 1.647 1.477.106.097.2.142.298.142.063 0 .132-.019.21-.056.426-.205.859-.31 1.289-.31.5 0 1.008.142 1.509.42.456.254.823.7 1.09 1.326.293.684.148 1.531-.376 2.21-.519.672-1.33 1.057-2.224 1.057-.903 0-1.72-.39-2.243-1.072-.543-.708-.626-1.612-.229-2.481.124-.27.077-.371-.082-.51-.936-.816-1.778-1.553-2.61-2.313-.096-.088-.175-.13-.24-.13-.076 0-.16.058-.262.183-.67.818-1.106 1.713-1.331 2.735-.062.278-.09.48-.025.561.042.055.144.078.341.08h.06l.422.002c.16 0 .32-.001.481-.009.354 0 .362.312.368.54.004.135-.005.304-.104.406-.057.06-.14.09-.242.09-.1-.003-.184-.004-.268-.004l-.536.004c-.096 0-.191-.001-.287-.004-.121 0-.187.022-.224.068-.051.061-.062.178-.033.345.212 1.178.682 2.18 1.436 3.064.07.082.135.124.193.124.058 0 .122-.04.19-.12.1-.117.212-.216.32-.312l.15-.135c.236-.225.404-.372.575-.372.203 0 .353.187.647.612l.04.06-.428.398c-.457.426-.913.85-1.374 1.265-.04.035-.098.055-.165.055-.073 0-.146-.023-.195-.062-1.353-1.073-2.157-2.378-2.458-3.988-.445-2.387.093-4.451 1.598-6.136 1.39-1.557 3.045-2.468 5.055-2.786.58-.092 1.146-.139 1.681-.139zm-.11-3.294l.265.144 2.183 1.215-2.354 1.315-.06-.25c-.123-.496-.123-.496-.29-.496-.059 0-.128.003-.211.007-2.57.13-4.73 1.056-6.607 2.833-1.417 1.34-2.236 2.915-2.504 4.813-.191 1.352-.022 2.686.504 3.963.135.33.293.64.46.97.078.153.157.308.235.468l.068.14-.125.095c-.256.193-.422.312-.597.312-.256 0-.375-.219-.573-.582-.984-1.804-1.323-3.746-1.008-5.77.203-1.3.708-2.508 1.545-3.694 1.084-1.538 2.497-2.69 4.318-3.523 1.342-.613 2.764-.965 4.228-1.044.183-.01.37-.02.402-.058.046-.054.067-.277.093-.56l.027-.298zm11.624.941c.799-.004 1.173.355 1.173 1.152 0 3.158-.006 6.316-.009 9.475 0 .11.004.219.009.328.032.657-.11.947-.567 1.15-.512.229-1.246.16-1.53-.234-.163-.227-.234-.573-.238-.866-.022-1.642-.01-3.285-.01-4.927h.003c0-1.642-.002-3.284 0-4.927.002-.78.378-1.147 1.169-1.15zm-8.047 0c.02 0 .038.003.054.007.164.042.319.104.498.175.09.036.15.093.18.165.03.074.029.153-.005.224l-.134.278c-.217.452-.422.88-.636 1.297-.05.098-.19.207-.311.207h-.01l-.028-.004c-.173-.035-.337-.095-.526-.163-.092-.034-.156-.092-.188-.166-.032-.073-.03-.157.005-.229l.125-.254c.233-.475.456-.93.689-1.377.049-.095.188-.16.287-.16z" transform="translate(-541.000000, -640.000000) translate(541.000000, 637.000000)"/>
            </g>
        </g>
    </g>
</svg>
