<svg xmlns="http://www.w3.org/2000/svg" width="20" height="18" viewBox="0 0 20 18">
    <g fill="none" fill-rule="evenodd">
        <g fill="#FFA814">
            <g>
                <path d="M6.726 3.84v2.2l-.225.202c-.026.024-2.659 2.447-2.733 5.72-.045 1.988.853 3.92 2.67 5.744h11.289l.042-.041c1.875-1.849 2.803-3.81 2.756-5.831-.074-3.27-2.707-5.697-2.734-5.72l-.223-.202V3.84h1.365v1.485c.747.751 2.88 3.182 2.958 6.469.056 2.333-.939 4.563-2.958 6.63v1.736h-1.56v-1.245h-1.67v1.245h-1.171v-1.245H12.82v1.245h-1.171v-1.245H9.937v1.245H8.766v-1.245H6.92v1.245H5.36v-1.608c-2.019-2.067-3.014-4.298-2.958-6.63.079-3.287 2.212-5.718 2.958-6.47V3.84h1.366zm5.45 10.427c.606.02 1.11.538 1.104 1.137-.006.636-.53 1.145-1.164 1.129-.62-.016-1.119-.541-1.102-1.162.016-.611.555-1.123 1.163-1.104zm-.02-10.427c.558.001 1.057.51 1.092 1.162.032.6.033 1.203.032 1.805-.003 1.61-.005 3.22-.027 4.828-.009.677-.397 1.178-.914 1.256-.724.11-1.297-.383-1.313-1.186-.023-1.106-.006-2.213-.006-3.319h-.006v-3.19l.004-.165c.042-.683.53-1.192 1.139-1.191z" transform="translate(-543.000000, -253.000000) translate(541.000000, 250.000000)"/>
            </g>
        </g>
    </g>
</svg>
