<svg xmlns="http://www.w3.org/2000/svg" width="24" height="11" viewBox="0 0 24 11">
    <g fill="none" fill-rule="evenodd">
        <g fill="#FFA814">
            <g>
                <path d="M23.076 15.2c.523.006.923.413.924.94 0 .51-.434.948-.931.942-.527-.006-.961-.447-.951-.966.01-.509.442-.922.958-.916zM.909 8.16l3.907 1.635.112.047v.651h1.987v-.589h-1.18V8.63h3.572v1.289H8.025v.59h2.23l.771.816 7.075-2.325.812.818s-.036 1.184-.59 1.275c0 0-.381-.524-.937-.524-.302 0-.657.156-1.03.636-1.028 1.32-3.591 4.331-3.746 4.512l-.007.009H3.635l.008-.389.002-.105V12.98L0 11.55l.909-3.39zm17.727 3.139c.314.822.577 1.664.564 2.568-.009.562-.204.723-.733.723-.56 0-.783-.242-.78-.868.005-.9.381-1.666.738-2.438.067-.144.159-.12.21.015zm-3.93.068l-3.313 1.089-.709.232-.514-.543-.422-.462-1.723.015-1.16-.015H4.927v2.851h7.13c.581-.684 1.762-2.082 2.647-3.167zm9.266-3.42c.021.106.026.215.026.322L24 12.723c0 .439-.123.817-.57.992-.654.256-1.29-.185-1.304-.906l-.008-.778.004-1.557c0-.754-.003-1.509 0-2.263.002-.34.113-.634.408-.837.565-.39 1.309-.094 1.442.574zM1.546 9.474L1.16 10.99l2.482.976.003-.274.014-1.347-2.113-.87z" transform="translate(-111.000000, -358.000000) translate(111.000000, 351.000000)"/>
            </g>
        </g>
    </g>
</svg>
