<svg xmlns="http://www.w3.org/2000/svg" width="20" height="18" viewBox="0 0 20 18">
    <g fill="none" fill-rule="evenodd">
        <g fill="#D4002A">
            <g>
                <path d="M11.233 18.377c.356.242.715.479 1.182.458.29-.014.534-.099.751-.293.751-.669 1.643-.779 2.543-.318.186.096.371.197.55.308.574.358 1.149.376 1.76.068.59-.298 1.2-.557 1.865-.663.737-.117.86.007.78.758-.034.328-.138.483-.506.474-.547-.012-1.057.16-1.548.418-.502.264-.982.612-1.6.57-.344-.025-.646-.127-.893-.377-.697-.705-1.718-.8-2.535-.239-.082.056-.166.11-.246.168-.822.605-1.61.496-2.412-.068-.864-.608-1.38-.608-2.228.04-.974.745-2.159.525-2.874-.142-.436-.407-1.035-.399-1.604-.376-.4.016-.436-.011-.446-.408v-.067c-.006-.688.033-.727.728-.73.663-.004 1.27.213 1.812.562.524.338 1.031.334 1.568.099.243-.107.484-.222.71-.358.91-.544 1.783-.467 2.643.116zm.962-14.537c.53.012.881.32.96.845.052.356.075.715.07 1.076-.007.555.006.584.571.552.881-.05 1.762-.055 2.644-.058.485-.001.504.02.507.489v.217c-.004.477-.077.477-.693.478-.839.001-1.677-.001-2.516.008-.463.005-.515.058-.511.507l-.001.368v.187c.004.442.074.444.627.44h.231l.134.001c.773.01 1.547.01 2.32-.01.31-.009.44.124.463.41l.007.065c.062.67.022.713-.638.712h-1.242v.007c-.511 0-1.023.006-1.535-.003-.265-.005-.379.106-.37.37.01.295.003.59.008.885.007.38.062.458.439.43.946-.068 1.893-.034 2.84-.045.454-.005.5.046.503.509.007.664.007.662-.657.663-.893 0-1.786.002-2.678.006-.405.001-.52.127-.496.534.02.326.139.599.363.847.538.597.606 1.287.301 2.013-.417.992-1.633 1.365-2.659.895-1.07-.49-1.24-1.787-.765-2.588.102-.172.22-.333.393-.43.277-.154.33-.384.329-.684-.01-2.882-.008-5.763-.009-8.645 0-.666.403-1.064 1.06-1.05zm7.525 10.427c.609.001 1.151.226 1.652.597.159.117.236.284.227.493-.011.254-.033.507-.049.761-.015.238-.13.264-.286.156-1.133-.786-2.282-.71-3.457-.118-.678.342-1.401.443-2.14.337-.443-.063-.46-.102-.464-.599v-.218H15.2v-.218c.004-.457.054-.507.462-.432.714.133 1.385-.046 2.05-.266l.444-.15c.511-.172 1.021-.345 1.564-.343zm-13.11.324c.587.321 1.22.397 1.868.384.258-.006.33.078.321.293v.124c.002.674.002.674-.713.669-.575.011-1.127-.116-1.6-.408-.753-.465-1.507-.396-2.284-.122-.415.146-.82.312-1.232.464-.46.169-.56.104-.568-.355v-.03c-.008-.639-.008-.64.63-.815.62-.17 1.228-.373 1.867-.486.616-.109 1.186-.006 1.712.282z" transform="translate(-113.000000, -252.000000) translate(111.000000, 249.000000)"/>
            </g>
        </g>
    </g>
</svg>
