<svg xmlns="http://www.w3.org/2000/svg" width="24" height="17" viewBox="0 0 24 17">
    <g fill="none" fill-rule="evenodd">
        <g fill="#D4002A">
            <g>
                <path d="M20.888 19.138v1.022h-7.665v-1.022h7.665zm1.698-.41c.501 0 .786.243.79.657.006.43-.309.72-.772.714-.044 0-.087-.001-.13-.007-.365-.05-.615-.333-.62-.699-.007-.373.22-.612.626-.658.043-.004.086-.006.106-.007zm.047-6.698c.497.01.75.337.748.955-.003.7 0 1.402 0 2.102h-.016c0 .731.003 1.462 0 2.193-.003.49-.135.7-.483.803-.64.187-1.009-.21-1.013-1.09-.006-1.342-.018-2.684-.02-4.026-.002-.627.273-.948.784-.937zm-5.577-.556l1.916 3.32 1.916 3.322h-7.665l1.916-3.321 1.917-3.321zm-2.003-2.072l.97.27c-.047.169-1.206 4.158-5.734 4.734l-.117-1.014c3.866-.491 4.872-3.955 4.881-3.99zM1.474 4.32c1.9.016 3.799.001 5.698.015.74.006 1.46.159 2.123.487.724.358 1.277.872 1.36 1.717.09.914-.288 1.618-1.056 2.126-.648.43-1.381.636-2.157.65-.453.007-.907.01-1.36.012L3.36 9.33c-.608.002-.679.069-.681.647-.004.845-.011 1.69.003 2.535.006.35-.12.502-.494.494l-.28-.003h-.333c-.67-.002-.615-.05-.608-.905v-.268C.957 10.767.965 9.703.965 8.64c0-1.268.01-2.536-.005-3.803-.004-.369.115-.52.514-.517zM13.08 8.711l1.119.215c-.003.014-.012.062-.032.14l-.03.105c-.22.71-1.126 2.736-4.429 3.438l-.33-.969c3.24-.688 3.685-2.838 3.702-2.929zm-1.518-.448l.726.275c-.036.094-.9 2.297-3.445 2.423l-.021-.794c1.863-.092 2.597-1.574 2.721-1.859l.019-.045zM3.126 5.302c-.292-.005-.448.11-.446.41.004.742.003 1.484 0 2.226-.001.295.145.42.441.418l.897-.003.896.001h1.659c.438 0 .866-.08 1.275-.218 1.018-.345 1.368-1.473.687-2.21-.338-.365-.807-.485-1.29-.538-1.37-.15-2.745-.067-4.119-.086z" transform="translate(-541.000000, -490.000000) translate(541.000000, 486.000000)"/>
            </g>
        </g>
    </g>
</svg>
