<svg xmlns="http://www.w3.org/2000/svg" width="16" height="18" viewBox="0 0 16 18">
    <g fill="none" fill-rule="evenodd">
        <g fill="#FFA814">
            <g>
                <path d="M14.931 3.946V20.64c-.452-.363-.854-.683-1.253-1.006-1.046-.847-2.091-1.696-3.136-2.545-.348-.283-.716-.546-1.032-.863-.23-.23-.467-.31-.774-.307-1.158.013-2.316.002-3.474.023-.34.006-.464-.098-.462-.456.014-2.159.013-4.318.004-6.477-.001-.307.102-.41.398-.406 1.025.013 2.054-.04 3.076.023.653.04 1.12-.217 1.593-.607 1.592-1.31 3.2-2.6 4.804-3.897.063-.05.134-.092.256-.176zm3.615 14.302c.595 0 1.078.49 1.078 1.094 0 .604-.483 1.094-1.078 1.094-.594 0-1.077-.49-1.077-1.094 0-.604.483-1.094 1.077-1.094zM13.53 6.594c-.106.045-.228.068-.315.137-1.133.892-2.268 1.783-3.383 2.698-.142.116-.248.366-.25.555-.02 1.436.005 2.871-.022 4.306-.007.338.087.559.33.757 1.096.9 2.187 1.806 3.285 2.703.105.086.243.131.367.196.04-.144.112-.287.113-.431.008-1.742.005-3.484.005-5.226h-.014c0-1.779.002-3.557-.005-5.336 0-.12-.072-.24-.11-.359zm5.986-2.754v13.486h-2.003V3.84h2.003z" transform="translate(-920.000000, -399.000000) translate(916.000000, 395.735792)"/>
            </g>
        </g>
    </g>
</svg>
