<svg xmlns="http://www.w3.org/2000/svg" width="20" height="18" viewBox="0 0 20 18">
    <g fill="none" fill-rule="evenodd">
        <g fill="#FFF">
            <g>
                <path d="M12 3.36c5.293 0 9.6 4.12 9.6 9.183 0 1.758-.522 3.465-1.51 4.942l1.27 1.135-.253.033c-1.3.166-4.827 1.806-4.862 1.822l-.353.165.207-.333c1.294-2.079 1.64-4.853 1.644-4.88l.03-.25 1.082 1.185c.707-1.155 1.08-2.474 1.08-3.819 0-4.179-3.56-7.579-7.935-7.579s-7.935 3.4-7.935 7.58c0 2.59 1.366 4.976 3.654 6.38l.1.06-.847 1.382-.098-.06C4.073 18.612 2.4 15.709 2.4 12.544 2.4 7.48 6.707 3.36 12 3.36zm.773 4.694l3.255 7.657h-1.897l-.634-1.72h-3.058l-.68 1.713h-.04-.233l-.09.001H8.62c-.626-.002-.626-.012-.626-.075v-.012l3.112-7.564h1.667zm-.827 1.85l-1.014 2.753h2.058l-1.044-2.753z" transform="translate(-543.000000, -330.000000) translate(541.000000, 327.000000)"/>
            </g>
        </g>
    </g>
</svg>
