<svg xmlns="http://www.w3.org/2000/svg" width="22" height="13" viewBox="0 0 22 13">
    <g fill="none" fill-rule="evenodd">
        <g fill="#FFA814">
            <g>
                <path d="M6.748 12.96c.145-.003.35.144.424.282.065.122.003.33-.039.49-.023.087-.12.156-.19.225-1.317 1.299-2.634 2.598-3.958 3.89-.142.14-.324.238-.54.393-.18-.162-.361-.27-.465-.43-.132-.205-.028-.406.135-.566.684-.671 1.369-1.341 2.05-2.014.683-.673 1.356-1.356 2.05-2.017.14-.133.351-.249.533-.253zm14.626 2.88c.635.012 1.191.584 1.186 1.22-.005.642-.559 1.182-1.21 1.18-.666-.002-1.195-.53-1.19-1.188.005-.671.559-1.224 1.214-1.212zm-9.29-2.38c.148.043.25.241.396.397-.13.18-.204.329-.32.438-1.13 1.058-2.266 2.11-3.4 3.164-.224.208-.438.426-.672.623-.266.224-.56.205-.768-.026-.18-.199-.16-.463.08-.688 1.372-1.278 2.744-2.555 4.133-3.815.118-.106.387-.139.55-.092zm2.659-.342c.195.2.187.469-.057.713-.745.743-1.496 1.48-2.255 2.21-.117.113-.286.171-.474.279-.153-.122-.356-.207-.407-.347-.055-.15-.035-.418.068-.522.782-.796 1.589-1.57 2.4-2.339.227-.215.532-.192.725.006zm-5.485-.097c.137.078.22.259.342.412-.101.174-.154.321-.25.421-.74.765-1.483 1.525-2.233 2.277-.257.257-.521.246-.739.003-.202-.227-.186-.464.076-.735.724-.75 1.456-1.49 2.183-2.236.182-.187.402-.268.621-.142zM21.362 5.76c.699.002 1.197.535 1.197 1.281 0 1.89.003 3.779-.002 5.668-.002.509-.306.951-.741 1.122-.476.186-1.041.083-1.346-.328-.164-.22-.28-.532-.29-.807-.035-.954-.014-1.91-.013-2.865 0-.934-.004-1.868 0-2.802.005-.762.49-1.272 1.195-1.269zm-10.198.665c.816.276 1.23.86 1.247 1.737.008.439.008.439.383.266.792-.364 1.837.032 2.16.855.121.306.157.651.2.983.034.256.12.299.334.172.184-.108.373-.222.574-.282.825-.244 1.588.147 1.922.984.105.263.164.545.256.86H1.92c.175-1.898 1.672-2.317 2.743-1.589.251.17.34.119.351-.188.019-.479.115-.929.42-1.31.451-.566 1.33-.772 1.983-.466l.274.128c.015-.141.033-.24.035-.34.016-.926.483-1.557 1.357-1.837.697-.223 1.391-.206 2.08.027z" transform="translate(-917.000000, -324.000000) translate(916.000000, 318.735792)"/>
            </g>
        </g>
    </g>
</svg>
