<svg xmlns="http://www.w3.org/2000/svg" width="23" height="10" viewBox="0 0 23 10">
    <g fill="none" fill-rule="evenodd">
        <g fill="#FFA814">
            <g>
                <path d="M1.998 7.68L6.46 9.547l.128.053v.744h2.27v-.672H7.51V8.215h4.079v1.473h-1.465v.673h2.547l.881.932 8.08-2.655.927.934s-.04 1.352-.674 1.457c0 0-.434-.598-1.07-.598-.345 0-.75.177-1.176.725-1.21 1.555-4.286 5.164-4.286 5.164H5.112v-.041c.003-.08.006-.272.011-.523v-2.571L.96 11.552 1.998 7.68zm15.757 3.663l-3.783 1.243-.81.266-.587-.621-.482-.527-1.968.017-1.325-.017H6.589v3.256h8.143c.398-.469 1.043-1.231 1.713-2.034l.448-.538c.299-.359.592-.715.862-1.045zm4.748-.176c.299.927.55 1.877.537 2.897-.008.634-.194.816-.698.816-.533 0-.745-.273-.742-.979.005-1.015.363-1.88.702-2.75.064-.163.152-.137.2.016zM2.725 9.18l-.44 1.731 2.834 1.115.004-.313.016-1.538-2.414-.995z" transform="translate(-113.000000, -323.000000) translate(112.000000, 316.000000)"/>
            </g>
        </g>
    </g>
</svg>
