<svg xmlns="http://www.w3.org/2000/svg" width="140" height="28" viewBox="0 0 140 28">
    <g fill="none" fill-rule="evenodd">
        <g>
            <g>
                <g fill="#FFF" stroke="#E1DED9">
                    <path d="M0.5 0.5H27.5V27.5H0.5z" transform="translate(-64 -1221) translate(64 1221)"/>
                </g>
                <g fill="#FFF" stroke="#D10D2E">
                    <path d="M0.5 0.5H27.5V27.5H0.5z" transform="translate(-64 -1221) translate(64 1221) translate(112)"/>
                </g>
                <g>
                    <path fill="#D4002A" d="M0 0H28V28H0z" transform="translate(-64 -1221) translate(64 1221) translate(28)"/>
                    <g fill="#FFF">
                        <path d="M10.48 1.2L4 7.728 1.52 5.232 0 6.768 4 10.8 12 2.736z" transform="translate(-64 -1221) translate(64 1221) translate(28) translate(8 8)"/>
                    </g>
                </g>
                <g fill="#E1DED9" fill-opacity=".6" stroke="#E1DED9">
                    <path d="M0.5 0.5H27.5V27.5H0.5z" transform="translate(-64 -1221) translate(64 1221) translate(56)"/>
                </g>
                <g>
                    <path fill="#D4002A" d="M0 0H28V28H0z" transform="translate(-64 -1221) translate(64 1221) translate(84)"/>
                    <g fill="#FFF" opacity=".6">
                        <path d="M10.48 1.2L4 7.728 1.52 5.232 0 6.768 4 10.8 12 2.736z" transform="translate(-64 -1221) translate(64 1221) translate(84) translate(8 8)"/>
                    </g>
                </g>
            </g>
        </g>
    </g>
</svg>
