<svg xmlns="http://www.w3.org/2000/svg" width="24" height="18" viewBox="0 0 24 18">
    <g fill="none" fill-rule="evenodd">
        <g fill="#FFA814">
            <g>
                <path d="M12 3.36c4.64 0 8.4 3.779 8.4 8.44 0 4.66-3.76 8.44-8.4 8.44-4.64 0-8.4-3.78-8.4-8.44 0-4.662 3.76-8.44 8.4-8.44zm9.04 1.983c.63.612 1.183 1.288 1.627 2.065.578 1.014.99 2.079 1.173 3.24.08.508.148 1.006.153 1.516.048 1.075-.163 2.135-.559 3.142-.524 1.335-1.23 2.545-2.276 3.524-.285.266-.386.27-.672.016-.152-.135-.308-.265-.454-.408-.18-.175-.167-.357.002-.54.254-.276.524-.534.76-.83.98-1.234 1.5-2.65 1.646-4.225.183-1.995-.371-3.776-1.501-5.38-.334-.475-.745-.89-1.166-1.288-.218-.205-.24-.392-.008-.597.089-.078.168-.167.248-.253.508-.545.587-.408 1.027.018zM3.514 5.155c.152.135.308.265.454.408.18.175.167.357-.002.54-.254.276-.524.534-.76.83-.98 1.234-1.5 2.65-1.646 4.225-.183 1.995.371 3.776 1.501 5.38.334.475.745.89 1.166 1.288.218.205.24.392.008.597-.089.078-.168.167-.248.253-.508.545-.587.408-1.027-.018-.63-.612-1.183-1.288-1.627-2.065-.578-1.014-.99-2.079-1.173-3.24-.08-.508-.148-1.006-.153-1.516-.048-1.075.163-2.135.559-3.142C1.09 7.36 1.796 6.15 2.842 5.17c.285-.266.386-.27.672-.016zM12 4.89c-3.798 0-6.877 3.093-6.877 6.91 0 3.816 3.079 6.91 6.877 6.91 3.798 0 6.877-3.094 6.877-6.91 0-3.817-3.079-6.91-6.877-6.91zm-3.022 5.322l1.346 3.56h-.862l-.25-.732H7.81l-.258.732H6.72l1.358-3.56h.9zm3.634 0c.477.006.814.133 1.013.38.12.15.18.332.18.543 0 .217-.061.392-.182.524-.067.074-.166.141-.298.203.2.066.35.17.452.314.101.143.152.317.152.521 0 .211-.058.4-.174.568-.074.111-.166.205-.277.28-.125.087-.272.147-.441.179-.17.032-.354.048-.552.048h-1.76v-3.56h1.887zm3.287-.132c.385 0 .713.098.985.293.272.196.414.48.427.852h-.724c-.013-.21-.11-.36-.291-.45-.12-.058-.27-.087-.45-.087-.198 0-.357.038-.476.114-.119.076-.178.182-.178.318 0 .125.059.219.176.28.075.041.235.09.48.145l.632.145c.278.063.485.148.624.254.215.165.322.403.322.715 0 .32-.127.585-.382.796-.254.212-.614.317-1.08.317-.474 0-.848-.104-1.12-.312-.272-.208-.408-.494-.408-.858h.72c.023.16.069.28.137.358.125.144.339.216.642.216.182 0 .329-.019.442-.057.215-.072.322-.208.322-.406 0-.115-.052-.205-.157-.268-.106-.062-.273-.116-.5-.164l-.391-.083c-.384-.082-.648-.172-.791-.268-.244-.162-.365-.414-.365-.758 0-.313.119-.573.357-.78.237-.208.587-.312 1.047-.312zm-3.434 2.125h-.96v.949h.947c.17 0 .302-.021.396-.063.171-.077.256-.225.256-.444 0-.185-.082-.313-.248-.382-.093-.039-.223-.059-.39-.06zm-3.945-1.18l-.494 1.402h.975l-.481-1.401zm3.834-.195h-.85v.785h.95c.169 0 .307-.03.412-.088.106-.059.159-.163.159-.313 0-.166-.07-.275-.21-.328-.12-.037-.274-.056-.461-.056z" transform="translate(-1627.000000, -282.000000) translate(1627.000000, 279.000000)"/>
            </g>
        </g>
    </g>
</svg>
