<svg xmlns="http://www.w3.org/2000/svg" width="22" height="15" viewBox="0 0 22 15">
    <g fill="none" fill-rule="evenodd">
        <g fill="#D4002A">
            <g>
                <path d="M19.266 4.8v1.44h2.814v12H1.92V6.253l.542-.012c.044-.001.09-.002.134 0h2.26V4.925h4.166v1.316h5.956V4.8h4.288zm1.706 2.575H3.028v9.73h17.944v-9.73zM17.734 9.12v1.375c0 .05.041.09.091.09H19.2v.91h-1.375c-.05 0-.09.04-.09.09v1.375h-.91v-1.375c0-.05-.04-.09-.09-.09H15.36v-.91h1.375c.05 0 .09-.04.09-.09V9.12h.91zM8.64 10.56v.96H4.8v-.96h3.84z" transform="translate(-112.000000, -424.000000) translate(111.000000, 420.000000)"/>
            </g>
        </g>
    </g>
</svg>
