<svg xmlns="http://www.w3.org/2000/svg" width="19" height="18" viewBox="0 0 19 18">
    <g fill="none" fill-rule="evenodd">
        <g fill="#FFA814">
            <g>
                <path d="M15.702 3.84l1.513.012c.575.869 1.188 2.291.75 3.755h3.08V8.78h-3.563c-.338 1.35.035 2.445.24 2.9h3.322v1.173h-2.87c.157.657.246 1.608-.102 2.649h2.972v1.173h-3.493c-.608 1.694.34 3.427.35 3.445l.022.041.229.479h-1.45c-.258-.523-.95-2.17-.506-3.965h-2.668v-1.173h3.135c.566-1.129.328-2.175.162-2.649h-3.297V11.68h2.807c-.22-.691-.404-1.712-.18-2.9h-2.627V7.607h3.036c.85-1.577-.318-3.14-.457-3.306l-.405-.461zm-5.077.442l.198.477c.287.689.526 1.4.72 2.132.945 3.551.807 7.326.011 10.92-.112.505-.23.973-.35 1.398l-.09.31-.023.075-.044.141-.041.132-.04.12-.039.117-.193.536-.499-.116-.076-.018-.085-.022-.095-.027-.104-.03-.113-.035-.121-.04-.129-.043-.137-.048-.144-.052-.074-.028c-.792-.3-1.584-.692-2.327-1.19-2.225-1.492-3.55-3.607-3.466-6.405.08-2.709 1.352-4.822 3.4-6.388.61-.467 1.255-.857 1.906-1.178l.392-.184.146-.064.138-.06.132-.053.032-.013.03-.013.12-.046.112-.042.027-.01.026-.009.099-.034.09-.03.08-.025.531-.155zM9.958 5.71l-.069.027c-.113.046-.232.096-.355.152-.706.317-1.413.723-2.07 1.226-1.79 1.37-2.878 3.176-2.947 5.505-.07 2.36 1.035 4.125 2.955 5.413.664.445 1.378.799 2.093 1.069l.21.077.199.068.015.005.058-.196c.089-.304.177-.633.262-.985l.085-.36.034-.15c.76-3.429.89-7.027 0-10.374-.08-.303-.169-.603-.266-.898l-.152-.44-.052-.14z" transform="translate(-1220.000000, -246.000000) translate(1217.000000, 242.735792)"/>
            </g>
        </g>
    </g>
</svg>
