<svg xmlns="http://www.w3.org/2000/svg" width="22" height="21" viewBox="0 0 22 21">
    <g fill="none" fill-rule="evenodd">
        <g fill="#FFA814">
            <g>
                <path d="M7.21 13.92c.935-.003 2.095.146 3.025.345.585.125 1.166.365 1.69.66.336.19.64.533.827.88.428.793.186 1.618-.642 1.972-.798.341-1.658.553-2.505.755-.936.223-1.89.362-2.832.556-.218.045-.434.14-.627.254-.953.56-.967 1.578.003 2.127.46.26.995.383 1.495.567-.875.05-1.762.076-2.635-.023-.717-.082-1.454-.277-2.104-.588-1.237-.592-1.316-2.042-.197-2.845.825-.592 1.793-.83 2.765-1.038.927-.198 1.855-.391 2.782-.594.136-.03.27-.088.396-.15.834-.415.927-1.274.2-1.86-.233-.188-.469-.373-.72-.53-.24-.15-.5-.26-.751-.388-.16-.064-.138-.055-.17-.1zm14.067.993c.566.37.851.878.796 1.532-.053.637-.492 1.035-1.074 1.201-.976.279-1.979.476-2.974.694-.79.173-1.596.287-2.375.497-.921.25-1.288.91-.943 1.634.236.495.724.712 1.244.85.315.084.637.143.952.242-1.642.026-3.294.2-4.854-.528-1.23-.574-1.342-2.086-.302-2.726 1.022-.629 2.15-.901 3.317-1.107.741-.13 1.48-.28 2.214-.445.245-.055.49-.158.702-.287.616-.374.689-1.04.162-1.52-.245-.224-.528-.416-.814-.591-.272-.167-.57-.294-.856-.439 1.684-.001 3.352.044 4.805.993zM15.873 1.92l1.394 2.525h1.917L19.2 6.93h-1.117l.003 3.286s.067.46-.496.556v.668l-.001.16v.485l-.001.154v.51l-.001.086v.121l-1.84.004v-2.363H8.815s.013.951.014 1.644v.319c-.001.238-.006.397-.015.388l-1.887.004v-2.179s-.475-.14-.473-.565l-.007-3.214H4.8v-2.52h1.775L8.294 1.92h7.579zm-.74.966h-6.13c-.02 0-1.12 1.637-1.12 1.637v1.965h8.204V4.615l-.955-1.73z" transform="translate(-1628.000000, -418.000000) translate(1627.000000, 416.735792)"/>
            </g>
        </g>
    </g>
</svg>
