<svg xmlns="http://www.w3.org/2000/svg" width="24" height="18" viewBox="0 0 24 18">
    <g fill="none" fill-rule="evenodd">
        <g fill="#D4002A">
            <g>
                <path d="M13.89 17.456v1.072h4.91v1.693h-4.92v1.027l-1.927-1.856 1.937-1.936zm8.781-1.577c.73.022 1.335.605 1.329 1.278-.007.715-.64 1.287-1.402 1.269-.747-.018-1.347-.609-1.328-1.306.02-.687.67-1.262 1.401-1.24zM.147 9.523c.607 0 2.649.053 3.43.737.546.477 1.009 1.367 1.248 1.884l.065.143 1.943.576c.726.322 1.304.976 1 1.723-.22.544-.891 1.504-1.106 1.805l-.041.058-.177.245H5.474c-.289.357-.848.897-1.61.93-.026.002-.052.002-.079.002-.547 0-1.066-.259-1.545-.771l-.142-.161H0v-1.18h2.686l.176.242c.32.44.656.69.921.69.373-.014.712-.396.848-.59l.038-.058.172-.282 1.06-.002c.319-.458.68-1.015.817-1.32-.038-.044-.125-.122-.239-.19l-.09-.048-2.374-.696-.106-.266c-.14-.35-.645-1.44-1.108-1.846-.285-.249-1.457-.422-2.456-.443l-.198-.002H0v-1.18h.147zm18.795.096v1.18h-2.675c-.162.126-.658.565-1.887 1.988l-.165.191-.101.119-.147.053c-2.424.87-3.422 1.124-3.598 1.166-.047.02-.152.09-.174.151-.018.05 0 .164.104.34.456.77.622 1.007.623 1.01.033.05.302.447.707.489l.07.003c.285 0 .619-.174.972-.505l.134-.131.174-.18h5.886v1.18H13.47c-.581.542-1.175.816-1.767.816-.069 0-.138-.004-.208-.011-.994-.11-1.535-.976-1.557-1.013-.007-.006-.204-.296-.654-1.056-.356-.603-.301-1.073-.192-1.36.216-.572.77-.803.91-.854l.027-.008.046-.013c.014-.004.914-.213 3.347-1.082 1.974-2.295 2.265-2.464 2.767-2.472h2.753zm3.71-1.578c.607 0 1.149.384 1.187.873.035.452.036.905.035 1.357-.003 1.21-.006 2.42-.029 3.63-.01.508-.433.884-.994.943-.788.083-1.411-.288-1.429-.892-.024-.83-.006-1.663-.006-2.494h-.007V9.185c0-.083-.003-.166.005-.249.045-.513.576-.896 1.238-.895zM8.124 3.996l.043.038 1.488 1.788 2.201-.774c.073-.026.154-.003.202.058.037.045.048.104.034.158l-.022.052-1.248 1.968 1.415 1.847c.046.062.05.146.007.21-.022.033-.053.057-.088.07-.022.009-.047.013-.071.012l-.037-.006-2.26-.572-1.327 1.917c-.044.064-.123.092-.197.072-.056-.016-.1-.057-.12-.108l-.013-.055-.149-2.322-2.234-.663c-.074-.022-.126-.089-.13-.166-.002-.058.023-.112.066-.147l.049-.03L7.9 6.48l-.054-2.326c-.002-.077.045-.147.118-.174.054-.02.113-.013.16.016z" transform="translate(-541.000000, -607.000000) translate(541.000000, 603.000000)"/>
            </g>
        </g>
    </g>
</svg>
