<svg xmlns="http://www.w3.org/2000/svg" width="20" height="14" viewBox="0 0 20 14">
    <g fill="none" fill-rule="evenodd">
        <g fill="#D4002A">
            <g>
                <path d="M12 5.28c3.711 0 6.72 3.009 6.72 6.72s-3.009 6.72-6.72 6.72S5.28 15.711 5.28 12 8.289 5.28 12 5.28zm7.232 1.58c.504.486.947 1.025 1.301 1.643.463.807.792 1.655.939 2.58.064.404.118.801.123 1.207.038.857-.131 1.7-.448 2.502-.419 1.063-.983 2.026-1.82 2.806-.228.212-.31.216-.538.013-.122-.108-.247-.212-.363-.325-.144-.14-.134-.284 0-.43.204-.22.42-.425.61-.661.784-.983 1.2-2.11 1.316-3.364.147-1.589-.297-3.007-1.201-4.284-.267-.378-.596-.709-.933-1.025-.174-.164-.192-.313-.006-.476.07-.062.134-.133.198-.202.407-.433.47-.324.822.015zm-14.02-.15c.12.107.246.21.362.324.144.14.134.284 0 .43-.204.22-.42.425-.61.661-.784.983-1.2 2.11-1.316 3.364-.147 1.589.297 3.007 1.201 4.284.267.378.596.709.933 1.025.174.164.192.313.006.476-.07.062-.134.133-.198.202-.407.433-.47.324-.822-.015-.504-.487-.947-1.026-1.301-1.644-.463-.807-.792-1.655-.939-2.58-.064-.404-.118-.801-.123-1.207-.038-.857.131-1.7.448-2.502.419-1.063.983-2.026 1.82-2.806.228-.212.31-.216.538-.013zM12 6.497C8.96 6.498 6.498 8.961 6.498 12c0 3.039 2.463 5.502 5.502 5.502 3.039 0 5.502-2.463 5.502-5.502 0-3.039-2.463-5.502-5.502-5.502zM12 14.453c.409.003.762.36.767.774.005.397-.352.753-.757.755-.438.001-.772-.327-.779-.766-.006-.4.362-.766.77-.763zM12.2 8.37c.357.115.56.392.564.813.009.676.003 1.352.003 2.028 0 .662.006 1.325-.002 1.987-.007.524-.319.873-.76.873-.395 0-.696-.28-.75-.701-.012-.093-.02-.188-.02-.283 0-1.257-.006-2.514.005-3.77.001-.203.036-.428.125-.6.164-.317.534-.445.835-.347z" transform="translate(-1219.000000, -490.000000) translate(1217.000000, 485.000000)"/>
            </g>
        </g>
    </g>
</svg>
