<svg xmlns="http://www.w3.org/2000/svg" width="22" height="16" viewBox="0 0 22 16">
    <g fill="none" fill-rule="evenodd">
        <g fill="#FFA814">
            <g>
                <path d="M4.646 4.8c.394.14.825.22 1.177.432 1.903 1.146 3.774 2.344 5.68 3.484.929.555 1.972.621 3.02.425.633-.118 1.25-.33 1.884-.447.199-.037.478.038.636.166.562.457 1.089.96 1.63 1.443 1.089.976 2.18 1.95 3.268 2.928.821.738.695.853.364 1.754-.35.952-1.003 1.709-1.728 2.401-.926.885-2.023 1.451-3.257 1.776-.304.08-.549.038-.778-.154-.753-.632-1.517-1.252-2.244-1.912-.14-.128-.212-.427-.185-.629.062-.451.184-.899.325-1.334.126-.391.046-.727-.288-.906-.515-.275-1.054-.552-1.616-.68-.746-.17-1.524-.207-2.29-.283-.346-.035-.633-.15-.902-.38-2.131-1.82-4.271-3.631-6.409-5.444-.405-.344-.482-.97-.181-1.503C3.11 5.3 3.884 4.859 4.646 4.8zM1.61 8.765c.173.088.37.146.515.268 1.693 1.434 3.38 2.878 5.067 4.32.076.065.151.133.218.208.216.24.232.532.047.76-.187.233-.526.31-.782.135-.293-.2-.564-.435-.836-.666-1.49-1.262-2.977-2.525-4.46-3.793-.142-.12-.291-.26-.37-.422-.174-.362.136-.753.601-.81z" transform="translate(-542.000000, -292.000000) translate(541.000000, 288.000000)"/>
            </g>
        </g>
    </g>
</svg>
