<svg xmlns="http://www.w3.org/2000/svg" width="22" height="18" viewBox="0 0 22 18">
    <g fill="none" fill-rule="evenodd">
        <g fill="#FFA814">
            <g>
                <path d="M12.218 17.59c.158 0 .286.145.286.324v2.403c0 .178-.128.323-.286.323h-.436c-.158 0-.286-.145-.286-.323v-2.403c0-.179.128-.323.286-.323h.436zm5.114-1.951L18.96 17.2c.12.116.13.314.02.442l-.302.353c-.11.128-.297.138-.417.022l-1.627-1.563c-.12-.116-.13-.313-.02-.441l.302-.354c.11-.128.297-.137.417-.021zm-10.249.02l.304.353c.11.128.101.325-.02.441l-1.625 1.564c-.12.117-.307.107-.417-.02l-.304-.353c-.11-.127-.101-.324.02-.44l1.625-1.565c.12-.116.307-.107.417.02zm2.65-12.298c.744.023 1.488.007 2.231.007.755 0 1.51.011 2.265-.005.282-.006.361.101.357.373-.012.83.003 1.66-.008 2.489-.003.268.09.414.325.555 2.628 1.576 3.758 5.346 1.205 8.006-1.629 1.697-3.626 2.164-5.856 1.495-1.736-.52-2.95-1.683-3.513-3.414-.604-1.857-.239-3.593 1.077-5.05.38-.42.887-.717 1.317-1.093.111-.098.21-.281.213-.428.02-.84.02-1.682.003-2.523-.006-.301.064-.422.385-.412zm-1.976 6.915c-.262 1.02-.168 1.998.324 2.888.847 1.534 2.196 2.248 4.091 2.259.218-.033.612-.069.994-.155.269-.06.529-.174.782-.29 2.48-1.126 3.323-4.426 1.158-6.545-2.48-2.426-6.57-1.186-7.349 1.843zm4.223 2.74c.293 0 .529.238.524.528-.004.25-.24.483-.495.489-.29.007-.513-.226-.513-.534 0-.276.208-.483.484-.483zm.007-4.574c.27.001.503.272.508.644.011.921.012 1.842.004 2.763-.003.372-.263.671-.536.659-.262-.012-.454-.269-.462-.652-.01-.466-.002-.933-.002-1.399 0-.455-.006-.91.003-1.365.008-.41.194-.65.485-.65zm9.773 2.033c.177 0 .32.13.32.288v.44c0 .16-.143.289-.32.289h-2.384c-.177 0-.32-.13-.32-.288v-.44c0-.16.143-.289.32-.289h2.384zm-17.136 0c.177 0 .32.13.32.288v.44c0 .16-.143.289-.32.289H2.24c-.177 0-.32-.13-.32-.288v-.44c0-.16.143-.289.32-.289h2.384zm1.103-6.02l1.638 1.55c.121.115.133.315.026.445l-.296.361c-.108.13-.293.143-.414.028l-1.638-1.55c-.121-.115-.133-.314-.026-.445l.296-.36c.108-.131.293-.144.414-.029zm12.914.01l.327.33c.117.119.117.311 0 .43l-1.59 1.603c-.118.12-.31.12-.427 0l-.327-.329c-.117-.119-.117-.311 0-.43l1.59-1.603c.118-.12.31-.12.427 0zm-5.634.319l-.335.006L12 4.787v.005h-.82c-.68-.003-.57-.004-.592.836-.008.29.094.407.382.4.52-.012 1.042-.003 1.564 0 .264.001.686.111.76-.007.134-.215.056-.565.076-.858.02-.273-.09-.39-.363-.38z" transform="translate(-917.000000, -361.000000) translate(916.000000, 357.735792)"/>
            </g>
        </g>
    </g>
</svg>
