<svg xmlns="http://www.w3.org/2000/svg" width="20" height="14" viewBox="0 0 20 14">
    <g fill="none" fill-rule="evenodd">
        <g fill="#FFA814">
            <g>
                <path d="M12.843 7.912c1.195-.007 2.085.515 2.719 1.493.203.314.296.675.358 1.042.026.156-.017.25-.19.25h-1.058c-.139 0-.205-.067-.236-.206-.24-1.065-.669-1.426-1.787-1.55-.86-.096-1.723-.034-2.584-.042-.932-.01-1.862-.026-2.773.228-.994.277-1.577.928-1.66 1.88-.033.365.027.435.39.436.971.003 1.941.001 2.912.002.361 0 .38.018.381.38 0 1.312-.006 2.624.004 3.936.003.273-.077.383-.366.374-.588-.018-1.176.002-1.764-.009-.251-.004-.354.085-.347.34l.007 1.428c.007.245-.066.352-.332.346-.617-.015-1.235-.017-1.852-.001-.278.007-.357-.103-.35-.36.009-.428-.016-.856-.015-1.284 0-.182-.046-.316-.23-.394-.166-.07-.276-.196-.373-.333l-.142-.21c-.13-.586-.047-1.179-.066-1.768-.012-.378-.008-.756 0-1.134.004-.178-.063-.292-.228-.364-.196-.086-.382-.198-.583-.273-.199-.073-.239-.204-.262-.399-.06-.496.03-.874.608-.96.35-.1.695-.206 1.047-.294.211-.053.319-.176.408-.371.44-.965 1.087-1.728 2.141-2.071.32-.104.658-.106.99-.107 1.744-.007 3.489.005 5.233-.005zm3.035-2.124c.672-.068 1.337-.014 1.997.169.836.231 1.419.78 1.894 1.464.61.878.805 1.873.76 2.93-.026.595-.098.581.544.579h.142c.371.005.384.015.384.386v6.629c-.004.282-.047.295-.39.295h-5.083l-5.054-.001c-.373 0-.382-.009-.381-.385.005-1.772.01-3.544.02-5.316l.032-1.37c.001-.212.1-.29.296-.287.199.003.398-.01.596 0 .23.013.33-.077.321-.314-.01-.305.003-.61-.002-.915-.004-.195.083-.274.274-.272.388.005.776.006 1.164-.002.193-.004.274.073.27.27-.007.323.006.648-.003.971-.006.221.087.305.304.305 1.457-.005 2.915-.005 4.372-.002.203 0 .293-.086.308-.284.07-.9-.075-1.763-.58-2.513-.438-.647-1.125-.805-1.863-.712-.492.062-.96.217-1.352.546-.137.115-.282.13-.448.052-.42-.197-.843-.389-1.268-.574-.2-.087-.215-.171-.053-.323.795-.74 1.715-1.215 2.8-1.326zm.078 6.097l-.184.008c-.491.047-.802.306-.932.783-.13.478-.002.927.187 1.358.082.188.088.354.037.549-.204.773-.389 1.55-.589 2.325-.058.225.002.32.24.315.501-.008 1.002-.002 1.504-.002.492 0 .984-.007 1.475.003.243.005.302-.089.23-.312-.176-.552-.328-1.114-.524-1.659-.186-.516-.308-1.017-.01-1.53.02-.032.024-.072.033-.109.281-1.104-.155-1.692-1.283-1.726-.122-.003-.246-.006-.368.005z" transform="translate(-113.000000, -458.000000) translate(111.000000, 453.000000)"/>
            </g>
        </g>
    </g>
</svg>
