<svg xmlns="http://www.w3.org/2000/svg" width="23" height="23" viewBox="0 0 23 23">
    <g fill="none" fill-rule="evenodd">
        <g fill="#D4002A">
            <g>
                <path d="M12.24.96c5.955 0 10.8 4.845 10.8 10.8 0 5.955-4.845 10.8-10.8 10.8-5.955 0-10.8-4.845-10.8-10.8 0-5.955 4.845-10.8 10.8-10.8zm0 1.005c-5.401 0-9.795 4.394-9.795 9.795s4.394 9.795 9.795 9.795 9.795-4.394 9.795-9.795-4.394-9.795-9.795-9.795zm0 1.3c4.684 0 8.495 3.81 8.495 8.495 0 4.684-3.81 8.495-8.495 8.495-4.684 0-8.495-3.81-8.495-8.495 0-4.684 3.81-8.495 8.495-8.495zm0 1.005c-4.13 0-7.49 3.36-7.49 7.49 0 4.13 3.36 7.49 7.49 7.49 4.13 0 7.49-3.36 7.49-7.49 0-4.13-3.36-7.49-7.49-7.49zM9.216 9.6v4.752H8.22v-3.277H7.056v-.636c.306-.013.52-.033.643-.059.195-.041.354-.125.477-.25.084-.084.147-.198.19-.34.025-.085.038-.148.038-.19h.812zM12 9.6c.467 0 .839.139 1.115.416.277.277.415.644.415 1.1 0 .35-.098.662-.293.933-.128.18-.339.382-.632.604l-.347.264c-.218.165-.367.285-.447.359-.08.074-.148.16-.203.257h1.928v.819h-3.024c.008-.34.076-.65.204-.93.124-.315.416-.649.877-1 .4-.307.659-.527.777-.66.18-.206.27-.432.27-.678 0-.2-.051-.366-.155-.5-.103-.132-.251-.198-.444-.198-.264 0-.444.106-.54.316-.054.122-.086.316-.097.58h-.843c.014-.401.082-.726.204-.974.232-.472.643-.708 1.235-.708zm3.912 0c.558 0 .95.207 1.175.62.225.412.337 1 .337 1.76s-.112 1.345-.337 1.756c-.225.41-.617.616-1.175.616-.559 0-.95-.205-1.175-.616-.225-.41-.337-.997-.337-1.757 0-.76.112-1.347.337-1.76.225-.412.616-.619 1.175-.619zm0 .747c-.256 0-.426.133-.508.4-.083.267-.124.677-.124 1.232 0 .53.041.935.124 1.215.082.281.252.421.508.421s.424-.14.503-.42c.08-.281.12-.686.12-1.216 0-.555-.04-.965-.12-1.232-.08-.267-.247-.4-.503-.4z" transform="translate(-542.000000, -677.000000) translate(541.000000, 677.000000)"/>
            </g>
        </g>
    </g>
</svg>
