<svg xmlns="http://www.w3.org/2000/svg" width="24" height="12" viewBox="0 0 24 12">
    <g fill="none" fill-rule="evenodd">
        <g fill="#FFA814">
            <g>
                <path d="M17.284 15.084c-.605 1.027-1.792 1.005-2.356-.049-.343-.641-.54-1.48-.527-2.238.061-1.089.259-2.122 1.07-2.896.416-.398.504-.39.945-.041 1.47 1.16 1.694 3.82.868 5.224m-8.493.07c-.783 1.138-2.012.687-2.492-.102-.364-.596-.536-1.37-.539-2.234.034-1.252.322-2.405 1.306-3.285.133-.119.273-.238.428-.323.253-.138.49-.126.718.096 1.598 1.553 1.85 3.998.579 5.847m14.665-5.459c-.245-.455-.53-.883-.89-1.252-1.279-1.304-2.777-1.983-4.637-1.621-.611.119-1.194.319-1.747.603-.187.096-.362.122-.568.05-2.394-.836-4.79-.751-7.173.036-.299.1-.519.069-.786-.07-1.17-.613-2.408-.934-3.712-.56-1.616.464-2.675 1.596-3.425 3.056-.095.187-.003.25.175.27.631.07 1.241.091 1.584-.602.025-.051.072-.092.11-.136.79-.886 1.742-1.435 2.96-1.422.32.003.624.067.898.248.197.129.266.237.038.418-.505.4-.843.932-1.105 1.513-.855 1.897-.922 3.798.172 5.605.836 1.38 2.06 1.797 3.514 1.157.907-.4 1.406-1.227 1.705-2.132.7-2.117.46-4.1-.966-5.88-.258-.322-.242-.366.148-.488.752-.236 1.525-.333 2.39-.32.58-.024 1.225.069 1.866.199.644.13.64.13.27.652-1.436 2.02-1.532 4.157-.487 6.357.339.711.834 1.34 1.618 1.626 1.22.446 2.355.054 3.143-1.08 1.355-1.95 1.269-5.447-.812-7.18-.078-.065-.194-.124-.175-.244.022-.142.162-.148.272-.18.82-.245 1.618-.134 2.389.192.578.244 1.1.59 1.405 1.158.163.304.384.424.702.41.313-.014.626-.052.94-.06.264-.006.303-.099.184-.323" transform="translate(-111.000000, -496.000000) translate(111.000000, 490.000000)"/>
            </g>
        </g>
    </g>
</svg>
