<svg xmlns="http://www.w3.org/2000/svg" width="16" height="20" viewBox="0 0 16 20">
    <g fill="none" fill-rule="evenodd">
        <g fill="#D4002A">
            <g>
                <path d="M15.952 2.414c.85.012 1.538.411 2.061 1.095.429.559.546 1.11.678 1.783.013.063.03.18.029.274l-.001 12.697c0 1.135-.398 2.1-1.286 2.826-.374.305-.819.507-1.32.507-2.13.004-4.261.007-6.392-.002-.856-.004-1.452-.492-1.972-1.112-.553-.66-.678-1.458-.733-2.267-.04-.59-.002-1.185-.012-1.777-.004-.26.09-.386.362-.373.254.012.51.005.764.003.182 0 .26.068.272.268l.017.434.007.868c.004.289.015.578.047.867.068.59.22 1.126.724 1.5.212.156.444.24.71.239 1.999-.002 3.997.002 5.996-.004.479-.001.79-.279 1.038-.664.327-.51.371-1.067.368-1.65-.01-1.956-.005-3.913-.005-5.869 0-2.07-.002-4.14.001-6.208 0-.467-.157-.889-.36-1.292-.286-.565-.803-.736-1.393-.737-1.584-.004-3.169-.009-4.753.004-.366.003-.734.03-1.1.057-.518.039-.818.389-1.017.83-.2.445-.252.924-.258 1.405-.009.725-.038 1.451.008 2.173.036.565-.189 1.008-.442 1.476L5.162 15.18c-.06.163-.176.217-.334.148-.307-.134-.603-.291-.89-.46-.178-.105-.072-.238-.004-.362.461-.842.941-1.675 1.353-2.544.507-.922 1.012-1.845 1.527-2.762.098-.175.136-.365.136-.564 0-.977.01-1.954-.004-2.931-.006-.405.095-.783.2-1.164.385-1.156 1.36-2.142 2.791-2.137 2.005.007 4.01-.017 6.015.011zM13.98 15.84l.9.96h-4.32l1.178-.96h2.242zm-.123-6.72l1.023 1.069-.815.851h-2.568l-.937-1.05 1.145-.87h2.152z" transform="translate(-1630.000000, -459.000000) translate(1627.000000, 457.000000)"/>
            </g>
        </g>
    </g>
</svg>
