<svg xmlns="http://www.w3.org/2000/svg" width="22" height="18" viewBox="0 0 22 18">
    <g fill="none" fill-rule="evenodd">
        <g fill="#FFA814">
            <g>
                <path d="M15.864 15.916c1.31 0 2.376 1.06 2.376 2.362s-1.066 2.362-2.376 2.362c-1.31 0-2.376-1.06-2.376-2.362 0-1.303 1.066-2.362 2.376-2.362zm-12.209 0l1.625 4.237h-.952l-.434-1.141h-1.45L1.99 20.21H.96l.06-.152c.023-.058.04-.102.057-.135l.025-.043 1.615-3.964h.938zm9.973 0v.846h-1.616v3.448h-.897v-3.439H9.6l.002-.747v-.108h4.026zm-7.442 0v2.744c.044.178.239.7 1.038.7.763 0 .976-.488 1.029-.666l.009-.033v-2.745h.906l-.004 2.835c-.081.49-.548 1.365-1.744 1.452l-.195.007c-1.276 0-1.803-.852-1.924-1.365l-.016-.078-.005-.057v-2.794h.906zm9.678.823c-.854 0-1.548.69-1.548 1.539s.694 1.54 1.548 1.54c.854 0 1.548-.691 1.548-1.54 0-.849-.694-1.54-1.548-1.54zm5.135-.991c.823 0 1.49.658 1.49 1.47 0 .812-.667 1.47-1.49 1.47s-1.49-.658-1.49-1.47c0-.812.667-1.47 1.49-1.47zM3.134 17.002l-.456 1.246h.941l-.485-1.246zm9.293-2.921c.134 0 .243.192.243.43 0 .236-.109.429-.243.429H6.775c-.134 0-.242-.193-.242-.43s.108-.43.242-.43h5.652zm10.108-8.546c.03.378.02.76.02 1.141.003 1.891.008 3.782.003 5.674-.002.78-.479 1.34-1.239 1.486-.709.137-1.473-.262-1.731-.92-.06-.151-.081-.324-.082-.487-.007-1.118-.004-2.236-.004-3.354h.004v-3.39c0-.776.589-1.356 1.426-1.403.855-.048 1.54.477 1.603 1.253zM9.613 3.36c2.227 0 4.114 1.495 4.621 3.548.35 1.414.05 2.872-.834 4.018-.5.633-.81 1.445-.878 2.307l-.038.49H6.73l-.044-.483c-.075-.836-.405-1.666-.967-2.425-.584-.807-.893-1.752-.893-2.738 0-2.618 2.15-4.717 4.788-4.717zm0 1.063c-2.052 0-3.719 1.627-3.719 3.654 0 .762.238 1.49.688 2.113.56.756.933 1.585 1.096 2.44l.005.031h3.834l.006-.038c.142-.814.462-1.577.93-2.214l.103-.135c.681-.883.913-2.01.64-3.112-.39-1.581-1.852-2.74-3.583-2.74zm.015 5.209c.078 0 .144.05.168.12l.009.054v.932c0 .097-.08.175-.177.175-.079 0-.145-.05-.169-.12l-.009-.055v-.932c0-.096.08-.174.178-.174zm1.57-.46l.048.03.709.616c.059.051.075.132.046.2l-.03.047-.044.035c-.048.028-.107.031-.158.01l-.048-.03-.71-.616c-.073-.064-.08-.174-.015-.247.052-.057.134-.074.202-.045zm-2.906.005l.04.039.028.05c.017.051.01.11-.022.154l-.04.04-.752.564c-.078.059-.189.044-.248-.033-.047-.062-.047-.144-.005-.205l.04-.04.752-.563c.062-.047.146-.047.207-.006zM9.628 6.84c.666 0 1.206.533 1.206 1.19 0 .657-.54 1.19-1.206 1.19-.667 0-1.207-.533-1.207-1.19 0-.657.54-1.19 1.207-1.19zm3.027 1.011c.098 0 .177.079.177.175 0 .097-.079.175-.177.175h-.945c-.098 0-.177-.078-.177-.175 0-.096.08-.175.177-.175h.945zm-5.11 0c.098 0 .177.079.177.175 0 .097-.08.175-.177.175H6.6c-.098 0-.177-.078-.177-.175 0-.096.08-.175.177-.175h.945zm.018-1.816l.752.564c.078.058.093.168.034.245-.06.077-.17.092-.248.033l-.753-.563c-.078-.059-.093-.168-.034-.245.06-.077.17-.092.249-.034zm4.38-.075l.044.035c.065.073.058.183-.016.247l-.709.616c-.058.05-.142.057-.206.02l-.044-.036c-.065-.072-.057-.183.016-.246l.709-.617c.059-.05.142-.056.206-.02zm-2.3-.813c.099 0 .178.078.178.174v.932c0 .078-.05.143-.121.166l-.056.01c-.098 0-.177-.08-.177-.176v-.932c0-.077.05-.142.12-.165l.057-.01z" transform="translate(-917.000000, -285.000000) translate(916.000000, 281.735792)"/>
            </g>
        </g>
    </g>
</svg>
