<svg xmlns="http://www.w3.org/2000/svg" width="22" height="16" viewBox="0 0 22 16">
    <g fill="none" fill-rule="evenodd">
        <g fill="#FFA814">
            <g>
                <path d="M9.864 4.8c4.645 0 8.424 3.547 8.424 7.908 0 1.405-.395 2.773-1.145 3.98l-.18.275 1.114.978-.222.028c-1.1.138-4.024 1.46-4.252 1.563l-.014.006-.31.142.182-.287c.744-1.172 1.13-2.602 1.31-3.456l.05-.25c.05-.265.075-.441.081-.486l.001-.01.027-.215.95 1.02c.62-.995.947-2.13.947-3.288 0-3.599-3.124-6.526-6.963-6.526-3.84 0-6.963 2.927-6.963 6.526 0 2.145 1.108 4.127 2.979 5.35l.228.144.087.052-.743 1.19-.086-.051c-2.458-1.46-3.926-3.96-3.926-6.685 0-4.36 3.779-7.908 8.424-7.908zm11.84 11.446c.733.023 1.343.649 1.336 1.37-.007.768-.642 1.382-1.41 1.363-.75-.02-1.354-.653-1.334-1.402.02-.737.673-1.355 1.408-1.331zM10.527 8.933l2.83 6.614h-1.65l-.551-1.485h-2.66l-.591 1.479h-.034-.251l-.094.001h-.509c-.6 0-.643-.006-.646-.053v-.022l2.706-6.534h1.45zm11.151-3.099c.573.001 1.085.478 1.121 1.087.033.562.034 1.126.033 1.689-.003 1.506-.005 3.011-.027 4.517-.01.633-.409 1.101-.94 1.175-.744.103-1.332-.36-1.35-1.11-.022-1.035-.005-2.07-.005-3.105h-.006V7.26c0-.104-.003-.208.004-.31.043-.64.544-1.116 1.17-1.115zm-11.83 4.34l-1.011 2.48h2.054l-1.042-2.48z" transform="translate(-542.000000, -411.000000) translate(541.000000, 407.000000)"/>
            </g>
        </g>
    </g>
</svg>
