<svg xmlns="http://www.w3.org/2000/svg" width="20" height="24" viewBox="0 0 20 24">
    <g fill="none" fill-rule="evenodd">
        <g fill="#FFA814">
            <g>
                <path d="M6.88 18.133c1.62 0 2.933 1.314 2.933 2.934S8.5 24 6.88 24c-1.62 0-2.933-1.313-2.933-2.933 0-1.62 1.313-2.934 2.933-2.934zm7.733 0v1.047H11.8l.016 1.1v.019h2.386V21.3H11.8v2.166h-1.453v-5.334h4.266zm4.8 0v1.047H16.6l.016 1.1v.019h2.386V21.3H16.6v2.166h-1.453v-5.334h4.266zM6.926 19.181c-.865 0-1.566.817-1.566 1.824 0 1.007.701 1.823 1.566 1.823.865 0 1.566-.816 1.566-1.823 0-1.007-.701-1.824-1.566-1.824zM11.76 0c5.161 0 9.36 3.89 9.36 8.673 0 1.55-.443 3.058-1.286 4.386l-.186.282 1.238 1.071-.247.031c-1.225.152-4.479 1.604-4.726 1.715l-.014.007-.345.155.202-.314c1.222-1.9 1.577-4.416 1.602-4.6l.001-.01.03-.236 1.055 1.12c.689-1.092 1.053-2.337 1.053-3.607 0-3.947-3.47-7.158-7.737-7.158-4.266 0-7.737 3.211-7.737 7.158 0 2.36 1.239 4.539 3.328 5.88l.235.145.098.058-.826 1.305-.095-.056C4.03 14.403 2.4 11.662 2.4 8.673 2.4 3.891 6.599 0 11.76 0zm.736 4.533l3.145 7.254h-1.833l-.613-1.629h-2.954l-.658 1.622H9.46l-.063.001h-.933c-.54-.001-.58-.01-.584-.058V11.7l3.007-7.166h1.61zm-.753 1.36l-1.124 2.72H12.9l-1.158-2.72z" transform="translate(-543.000000, -369.000000) translate(541.000000, 369.000000)"/>
            </g>
        </g>
    </g>
</svg>
