<svg xmlns="http://www.w3.org/2000/svg" width="16" height="17" viewBox="0 0 16 17">
    <g fill="none" fill-rule="evenodd">
        <g fill="#FFA814">
            <g>
                <path d="M9.397 10.392v-.019c.897 0 1.794-.01 2.69.006.297.005.41-.085.41-.39-.002-1.338.015-2.674.024-4.011.004-.565.003-.574-.545-.576-1.816-.005-3.632.002-5.448-.008-.287-.002-.321.138-.318.366.016 1.402.033 2.804.037 4.207 0 .308.115.432.426.429.908-.01 1.816-.004 2.724-.004m-4.19 1.49l-.001-6.775c0-.402.11-.582.494-.703.194-.061.408-.085.613-.084 2.166.013 4.333.031 6.5.055.808.01 1.011.22 1.023 1.052.022 1.48.042 2.96.048 4.439 0 .272.079.438.35.506 1.366.344 1.653 1.338 1.678 2.322.029 1.104-.003 2.212-.076 3.314-.09 1.37.932 1.848 1.938 1.576.473-.127.746-.462.824-.922.053-.308.036-.635.004-.949-.144-1.4-.509-2.752-.876-4.106-.13-.478-.22-.999-.177-1.487.197-2.182-.766-3.728-2.539-4.863-.208-.134-.259-.404-.125-.693.11-.237.3-.223.501-.159 2.196.703 3.484 2.249 4.086 4.427.108.391.1.398-.309.464-.251.04-.383.173-.407.433-.084.897-.087 1.77.194 2.659.411 1.306.624 2.657.704 4.036.046.774-.57 1.744-1.276 2.054-1.519.669-3.402-.103-3.486-2.236-.04-1.018 0-2.038-.015-3.058-.005-.315-.059-.632-.122-.942-.03-.144-.105-.308-.213-.397-.147-.122-.345-.181-.521-.268-.044.157-.125.314-.127.472-.032 1.95-.056 3.901-.071 5.852-.003.328.05.655.07.983.015.226.125.323.354.34.368.027.37.071.367.632-.002.311-.185.287-.389.288-3.163.002-6.326.002-9.49.016-.323.001-.44-.108-.396-.419.009-.064.003-.132-.009-.196-.04-.228.04-.343.28-.301.482.083.623.023.621-.62-.007-2.247-.003-4.494-.003-6.742h-.022" transform="translate(-1221.000000, -289.000000) translate(1217.000000, 285.000000)"/>
            </g>
        </g>
    </g>
</svg>
