<svg xmlns="http://www.w3.org/2000/svg" width="20" height="16" viewBox="0 0 20 16">
    <g fill="none" fill-rule="evenodd">
        <g fill="#FFA814">
            <g>
                <path d="M4.696 4.8c1.975.012 3.95.029 5.924.05.736.009.921.2.932.956.02 1.345.038 2.69.043 4.036.001.247.073.398.32.46 1.245.312 1.506 1.216 1.53 2.11.025 1.004-.004 2.012-.07 3.014-.083 1.245.85 1.68 1.765 1.433.432-.117.68-.421.752-.839.048-.28.032-.577.003-.862-.131-1.273-.464-2.503-.798-3.734-.118-.434-.201-.908-.161-1.35.179-1.985-.698-3.39-2.314-4.423-.19-.12-.236-.366-.114-.63.1-.215.274-.202.457-.143 2 .639 3.174 2.044 3.723 4.024.099.356.09.362-.281.421-.23.037-.35.158-.371.394-.077.816-.08 1.609.176 2.417.375 1.188.569 2.416.642 3.67.042.703-.52 1.585-1.163 1.867-1.384.608-3.1-.093-3.176-2.033-.037-.925 0-1.853-.014-2.78-.005-.286-.054-.575-.111-.856-.027-.13-.096-.28-.194-.361-.134-.11-.315-.165-.476-.243-.04.142-.113.285-.115.428-.029 1.773-.051 3.547-.065 5.32-.002.298.045.596.064.894.013.205.114.294.322.31.336.024.337.064.335.574-.001.283-.169.261-.355.261-2.882.002-5.765.002-8.647.015-.296.001-.402-.098-.362-.38.008-.059.003-.121-.008-.18-.037-.207.037-.31.255-.273.44.076.568.021.567-.563-.008-2.043-.003-4.086-.003-6.13h-.02V5.516c0-.365.099-.529.45-.639.176-.055.371-.077.558-.076zM20.98 17.315c.27.029.461.21.493.476.02.162.03.326.041.444-.011.174-.011.304-.03.432-.038.265-.196.473-.497.5-.408.038-.822.041-1.232.02-.29-.014-.482-.203-.514-.454-.038-.305-.036-.616-.02-.923.015-.288.236-.477.53-.504.406-.038.824-.034 1.229.01zM20.994 4.8c.422.034.53.171.52.609-.04 1.947-.082 3.895-.126 5.842-.03 1.367-.072 2.733-.092 4.1-.004.278-.105.434-.386.448-.337.016-.675.02-1.011.003-.292-.016-.418-.186-.417-.472l-.077-5.049c-.033-1.611-.068-3.223-.097-4.834-.01-.564.051-.633.643-.664.346-.02.697-.01 1.043.017zm-16.102.977c-.262-.002-.293.126-.29.333.015 1.275.03 2.55.034 3.824 0 .28.105.394.388.39.828-.009 1.655-.003 2.483-.003v-.017c.817 0 1.635-.01 2.452.005.27.005.372-.077.372-.355-.001-1.215.014-2.43.023-3.646.003-.513.002-.522-.497-.523-1.655-.005-3.31.002-4.965-.008z" transform="translate(-1219.000000, -331.000000) translate(1217.000000, 327.000000)"/>
            </g>
        </g>
    </g>
</svg>
