<svg xmlns="http://www.w3.org/2000/svg" width="19" height="18" viewBox="0 0 19 18">
    <g fill="none" fill-rule="evenodd">
        <g fill="#FFA814">
            <g>
                <path d="M19.542 6.938c.237.68.448 1.254.628 1.838.02.066-.12.233-.218.276-.651.279-.583.28-.667.98-.137 1.142.381 2.108.696 3.13.389 1.264.513 2.547.324 3.857-.252 1.741-1.693 2.292-3.119 1.903-.728-.199-1.147-.82-1.293-1.521-.141-.684-.147-1.401-.164-2.105-.022-.888.02-1.777.007-2.666-.009-.662-.607-1.232-1.208-1.213-.229.008-.329.106-.33.328-.014 2.512-.028 5.025-.045 7.538 0 .24.107.36.349.356h.154c.508.003.75.37.528.845-.04.086-.227.142-.347.144-.695.013-1.39.006-2.085.006-2.522 0-5.044-.004-7.566.006-.321.001-.507-.04-.487-.433.029-.563.005-.565.461-.571.574-.008.618-.012.563-.59-.05-.535.179-.849.565-1.165 2.868-2.345 5.722-4.706 8.58-7.065.574-.474.695-.476 1.176.097.398.474.648 1.007.637 1.655-.02 1.173-.031 2.347.008 3.519.015.465.128.94.28 1.382.15.434.567.55.988.517.45-.034.888-.107 1.12-.605.384-.82.33-1.662.15-2.5-.261-1.207-.554-2.408-.866-3.604-.15-.573-.192-1.135-.109-1.718.067-.47.095-.947.154-1.418.013-.107.057-.234.13-.305.287-.275.59-.53 1.006-.898zm.054-2.62c.449-.374.448-.375.817.097.063.08.121.164.22.298L3.518 18.857l-.638-.746 1.564-1.299c2.311-1.908 4.62-3.818 6.934-5.723 1.915-1.578 3.836-3.15 5.753-4.727.824-.678 1.644-1.362 2.465-2.045zM9.938 3.84l3.108.003c.936.002 1.158.232 1.159 1.172 0 .58-.031 1.162.003 1.74.026.433-.093.749-.475.965-.119.067-.22.168-.38.293V5.279c-.001-.56-.03-.59-.588-.59l-5.676.002c-.467 0-.504.036-.505.51-.002 1.469-.002 2.938-.002 4.408 0 .484.038.52.536.522h3.697l-5.042 4.15c-.018-.229-.037-.36-.037-.49-.001-2.952-.003-5.905 0-8.857.001-.823.27-1.09 1.093-1.092 2.072-.002 4.145-.003 6.217.001zm5.84.223c.045-.269.26-.138.4-.077.418.184.83.384 1.35.626-.315.266-.519.462-.749.62-.084.057-.253.066-.345.02-.24-.12-.466-.273-.684-.432-.345-.253-.014-.511.028-.757z" transform="translate(-1219.000000, -370.000000) translate(1217.000000, 367.000000)"/>
            </g>
        </g>
    </g>
</svg>
