<svg xmlns="http://www.w3.org/2000/svg" width="21" height="16" viewBox="0 0 21 16">
    <g fill="none" fill-rule="evenodd">
        <g fill="#FFA814">
            <g>
                <path d="M14.4 5.063c-.516-.253-.925-.461-1.342-.653-.139-.064-.351-.2-.396.08-.041.256-.37.526-.027.789.216.166.44.325.679.45.091.048.26.04.343-.02.228-.165.43-.37.743-.646m5.781 14.617c.76-.003 1.428-.673 1.419-1.422-.01-.78-.671-1.452-1.438-1.458-.763-.006-1.453.683-1.442 1.439.013.826.64 1.444 1.461 1.441M1.547 18.24L17.28 5.403c-.09-.121-.144-.197-.202-.27-.34-.428-.339-.427-.751-.089-.755.62-1.509 1.24-2.267 1.856-1.761 1.431-3.527 2.858-5.288 4.29-2.127 1.73-4.25 3.462-6.374 5.195-.472.384-.942.771-1.438 1.178l.587.677m9.195-10.083c.146-.116.237-.208.345-.27.345-.198.453-.488.43-.887-.03-.532-.002-1.066-.003-1.6 0-.864-.202-1.075-1.05-1.077-1.877-.004-3.755-.003-5.632 0-.746 0-.99.246-.99 1.003-.003 2.714-.002 5.429 0 8.143 0 .12.017.24.033.451l4.568-3.816c-1.185 0-2.267.002-3.35 0-.45-.001-.485-.035-.485-.48 0-1.351 0-2.702.002-4.054 0-.434.034-.467.457-.467l5.142-.002c.506 0 .532.027.533.542v2.514m10.854 1.215c0-1.188.01-2.377-.005-3.565-.009-.74-.389-1.228-1.059-1.43-.563-.172-1.256.053-1.564.61-.168.303-.232.699-.236 1.053-.02 2.21-.01 4.421-.007 6.631 0 .166.013.333.036.497.101.74.666 1.232 1.406 1.232.828 0 1.413-.613 1.425-1.534.015-1.164.004-2.33.004-3.494M16.02 7.2c-.38.334-.66.567-.922.817-.068.065-.108.18-.12.278-.054.43-.08.863-.141 1.292-.077.531-.037 1.043.1 1.565.286 1.089.555 2.183.794 3.283.166.763.214 1.53-.137 2.277-.213.453-.615.52-1.029.55-.386.03-.768-.075-.905-.47-.14-.402-.243-.836-.258-1.26-.035-1.067-.024-2.136-.007-3.204.01-.59-.219-1.076-.584-1.508-.442-.522-.553-.52-1.08-.088-2.621 2.148-5.24 4.299-7.871 6.435-.355.288-.565.573-.519 1.06.05.527.01.531-.517.539-.418.005-.396.006-.423.52-.018.358.153.395.447.394 2.314-.009 4.628-.006 6.942-.006.638 0 1.276.007 1.913-.005.11-.002.282-.053.318-.13.204-.433-.018-.768-.484-.77h-.142c-.221.003-.32-.106-.319-.325.015-2.289.028-4.577.04-6.866.002-.202.094-.292.304-.298.551-.018 1.1.502 1.108 1.104.011.81-.027 1.62-.007 2.428.016.641.022 1.295.151 1.918.134.639.519 1.204 1.186 1.385 1.309.354 2.631-.147 2.862-1.733.174-1.193.06-2.362-.297-3.514-.289-.93-.764-1.81-.638-2.85.077-.637.014-.639.611-.893.09-.039.219-.191.2-.251-.164-.532-.358-1.055-.576-1.674" transform="translate(-1218.000000, -411.000000) translate(1217.000000, 407.000000)"/>
            </g>
        </g>
    </g>
</svg>
