<svg xmlns="http://www.w3.org/2000/svg" width="23" height="21" viewBox="0 0 23 21">
    <g fill="none" fill-rule="evenodd">
        <g fill="#FFA814">
            <g>
                <path d="M12.168 7.31c.293 0 .531.235.531.527v1.582l1.275-.95c.234-.174.567-.127.743.106.176.233.128.564-.106.739L12.7 10.738v3.024l2.61-1.558.244-2.361c.035-.29.298-.496.59-.462.285.034.491.286.466.57l-.163 1.574 1.366-.815c.247-.156.576-.082.732.165.157.246.083.572-.165.727l-.02.012-1.366.816 1.476.596c.27.113.395.423.28.691-.112.263-.413.39-.68.286l-2.214-.894-2.656 1.586 2.657 1.585 2.213-.894c.271-.11.58.02.691.289.11.27-.02.578-.291.688l-1.476.596 1.366.815c.254.145.343.467.198.72-.146.253-.47.34-.725.196-.007-.003-.014-.007-.02-.012l-1.366-.815.163 1.575c.026.29-.191.546-.483.571-.286.024-.54-.18-.573-.464l-.244-2.361-2.61-1.557v3.024l1.912 1.424c.234.175.282.506.106.739-.176.233-.509.28-.744.105l-1.274-.95v1.583c0 .292-.238.528-.53.528-.294 0-.532-.236-.532-.528V19.97l-1.274.95c-.235.174-.568.127-.744-.106-.176-.233-.128-.564.107-.739l1.911-1.424v-3.024l-2.61 1.557-.243 2.362c-.026.29-.283.505-.575.48-.292-.025-.509-.28-.483-.57l.001-.018.163-1.575-1.365.815c-.248.156-.576.082-.733-.164-.157-.246-.082-.572.165-.728l.02-.012 1.366-.815-1.475-.596c-.27-.113-.396-.424-.281-.692.112-.262.413-.388.68-.285l2.214.894 2.656-1.585-2.656-1.586-2.214.894c-.273.106-.58-.029-.687-.3-.104-.266.024-.566.288-.677l1.475-.596-1.365-.815c-.255-.145-.344-.467-.198-.72.145-.253.47-.341.724-.197l.02.013 1.366.815-.163-1.575c-.03-.29.182-.549.474-.579.292-.03.552.181.583.471l.244 2.362 2.61 1.557v-3.024L9.725 9.314c-.235-.175-.283-.506-.107-.739.176-.233.508-.28.743-.106l1.275.95V7.837c0-.292.238-.528.531-.528M8.203 5.426c.244.18.296.523.115.766l-6.374 8.55c-.18.24-.52.291-.762.113-.243-.18-.295-.523-.114-.766l6.374-8.55c.18-.24.52-.29.761-.113m8.717.11l6.4 8.53c.181.242.13.586-.112.766-.241.179-.582.13-.762-.11l-6.4-8.532c-.181-.242-.13-.586.112-.766.241-.179.581-.129.762.111m-4.221-.527v1.044c0 .291-.236.527-.527.527-.291 0-.527-.236-.527-.527V5.008c0-.29.236-.527.527-.527.29 0 .527.236.527.527m0-2.561V3.49c0 .291-.236.527-.527.527-.291 0-.527-.236-.527-.527V2.447c0-.291.236-.527.527-.527.29 0 .527.236.527.527" transform="translate(-917.000000, -241.000000) translate(916.000000, 239.735792)"/>
            </g>
        </g>
    </g>
</svg>
