<svg xmlns="http://www.w3.org/2000/svg" width="72" height="72" viewBox="0 0 72 72">
    <g fill="none" fill-rule="evenodd">
        <g>
            <g transform="translate(-1845 -460) translate(1845 460)">
                <circle cx="36" cy="36" r="36" fill="#27AB00"/>
                <path fill="#FFF" d="M52.301 19.56c-8.148-7.994-20.952-8.775-30.015-1.83-9.063 6.944-11.616 19.493-5.984 29.416L13 59l12.106-3.186c3.376 1.837 7.161 2.793 11.006 2.78 9.26-.011 17.603-5.584 21.145-14.124 3.542-8.54 1.586-18.368-4.956-24.91zM36.006 55c-3.404.004-6.746-.91-9.675-2.647l-.692-.417-7.204 1.889 1.911-7.007-.45-.736C15.3 38.74 16.25 29.22 22.208 22.932c5.958-6.288 15.414-7.75 22.992-3.555 7.578 4.195 11.36 12.984 9.195 21.371C52.231 49.135 44.668 54.997 36.006 55zM46.77 40.688c-.565-.291-3.337-1.704-3.858-1.906-.522-.202-.891-.291-1.272.292-.561.777-1.16 1.526-1.793 2.242-.326.392-.652.437-1.217.145-1.67-.684-3.21-1.663-4.554-2.892-1.23-1.181-2.289-2.54-3.14-4.035-.327-.583 0-.897.25-1.189.249-.291.564-.683.847-1.02.235-.293.426-.622.565-.975.159-.32.159-.7 0-1.02-.141-.292-1.272-3.161-1.75-4.327s-.924-.987-1.271-.998c-.348-.011-.707 0-1.087 0-.58.016-1.127.28-1.51.729-1.295 1.262-2.013 3.028-1.979 4.865.184 2.198.984 4.294 2.304 6.03.283.382 3.989 6.267 9.662 8.8 1.348.595 2.402.954 3.26 1.223 1.155.363 2.375.443 3.565.235 1.087-.168 3.336-1.412 3.815-2.769.367-.874.48-1.84.326-2.78-.24-.213-.609-.359-1.185-.65h.022z"/>
            </g>
        </g>
    </g>
</svg>
